<?xml version="1.0" standalone="no"?>
<!DOCTYPE svg PUBLIC "-//W3C//DTD SVG 20010904//EN"
 "http://www.w3.org/TR/2001/REC-SVG-20010904/DTD/svg10.dtd">
<svg version="1.0" xmlns="http://www.w3.org/2000/svg"
 width="1200.000000pt" height="1200.000000pt" viewBox="0 0 1200.000000 1200.000000"
 preserveAspectRatio="xMidYMid meet">

<g transform="translate(0.000000,1200.000000) scale(0.100000,-0.100000)"
fill="#FF6B35" stroke="none">
<path d="M0 6000 l0 -6000 6000 0 6000 0 0 6000 0 6000 -6000 0 -6000 0 0
-6000z m6495 5231 c17 -7 87 -15 158 -18 97 -5 127 -9 127 -19 0 -8 12 -15 28
-16 15 0 38 -2 52 -3 14 -2 44 -3 68 -4 40 -1 42 -2 32 -22 -7 -11 -14 -18
-17 -15 -4 3 -12 1 -19 -5 -8 -6 -21 -9 -29 -5 -8 3 -15 1 -15 -5 0 -6 -10
-10 -22 -9 -41 4 -59 0 -53 -10 3 -5 22 -10 41 -10 19 0 34 -3 34 -7 0 -10 73
-8 89 1 6 4 11 4 10 -1 -1 -4 1 -15 5 -23 5 -12 24 -14 101 -12 56 2 95 0 95
-6 0 -5 9 -12 20 -15 15 -4 20 0 20 14 0 10 -4 19 -9 19 -6 0 -9 9 -8 20 1 15
8 20 30 20 25 0 28 -2 17 -15 -7 -8 -9 -23 -5 -32 6 -17 7 -17 21 1 11 16 25
19 70 18 31 0 58 -3 61 -6 13 -13 -12 -26 -48 -26 -51 0 -48 -22 4 -31 41 -7
47 -4 47 23 0 15 5 17 28 12 40 -10 43 -13 36 -39 -4 -17 0 -26 14 -34 14 -7
21 -26 26 -63 4 -29 14 -63 21 -75 8 -12 18 -41 21 -65 4 -24 13 -55 20 -70 8
-15 14 -38 14 -51 0 -14 7 -30 15 -37 8 -7 15 -26 15 -42 0 -16 7 -45 15 -65
8 -19 15 -53 15 -75 0 -21 9 -56 20 -78 11 -22 20 -59 20 -84 0 -30 5 -46 15
-50 11 -4 15 -21 15 -58 0 -45 17 -102 21 -73 1 6 5 -19 9 -54 5 -41 13 -69
24 -76 10 -8 16 -27 16 -53 0 -22 6 -47 14 -54 7 -8 15 -31 18 -51 4 -33 2
-37 -19 -37 -13 0 -24 6 -24 13 -2 21 -5 31 -13 50 -5 10 -6 33 -3 52 5 28 1
41 -20 65 -13 16 -26 36 -27 42 -2 7 -7 32 -11 55 -5 28 -14 44 -26 48 -15 5
-17 16 -15 73 3 56 0 71 -18 91 -12 13 -15 21 -9 17 8 -4 6 5 -4 23 -16 26
-19 27 -30 13 -15 -21 -17 -42 -3 -42 7 0 9 -13 5 -32 -3 -18 -7 -55 -9 -81
-2 -33 -10 -54 -25 -68 -16 -15 -21 -30 -19 -67 1 -26 -2 -57 -6 -69 -5 -14
-3 -23 3 -23 6 0 11 5 11 12 0 6 7 19 16 29 8 9 18 39 22 65 9 60 36 73 47 22
12 -60 6 -106 -20 -145 -19 -30 -23 -46 -19 -74 4 -20 12 -36 19 -36 8 0 13 5
12 11 -1 6 4 10 11 8 7 -1 12 3 11 10 -3 29 2 74 10 87 24 38 60 -68 44 -128
-6 -24 -23 -29 -23 -6 0 8 -5 15 -11 15 -6 0 -9 -10 -7 -22 2 -14 9 -22 18
-21 14 2 60 -56 60 -77 0 -5 14 -10 30 -10 43 0 51 27 17 56 -33 28 -33 29 -5
31 31 3 68 -36 68 -72 0 -16 9 -48 20 -70 11 -22 20 -51 20 -65 0 -14 7 -38
15 -54 8 -15 15 -40 15 -55 0 -15 7 -36 15 -48 8 -12 18 -43 22 -69 3 -27 12
-59 20 -74 7 -14 13 -37 13 -51 0 -15 9 -46 20 -70 11 -24 20 -54 20 -65 0
-12 7 -35 15 -50 8 -16 15 -50 15 -76 0 -29 6 -52 16 -63 12 -11 16 -33 15
-76 -1 -69 -5 -79 -32 -79 -14 0 -19 7 -19 29 0 17 4 33 10 36 13 8 13 65 1
65 -5 0 -12 -9 -16 -19 -3 -11 -19 -22 -35 -26 -32 -7 -36 -18 -20 -60 6 -17
7 -33 1 -43 -9 -15 -11 -14 -19 8 l-9 25 -7 -23 c-4 -12 -12 -22 -18 -22 -10
0 -58 -46 -58 -56 0 -2 9 -4 21 -4 12 0 23 -8 26 -19 2 -10 16 -24 29 -30 13
-6 24 -15 24 -21 0 -14 20 -34 43 -43 9 -3 17 -13 17 -22 0 -20 39 -20 46 0 4
8 10 15 15 15 5 0 9 -7 9 -15 0 -8 -7 -15 -15 -15 -20 0 -9 -23 18 -35 46 -21
71 -5 70 43 -1 6 3 12 8 12 5 0 9 -10 10 -22 1 -13 2 -36 3 -51 0 -16 9 -34
19 -41 9 -7 17 -25 17 -39 0 -15 9 -43 19 -64 11 -21 21 -47 23 -57 5 -28 -20
-31 -31 -4 -5 13 -28 43 -50 67 -23 24 -41 47 -41 51 0 4 -10 10 -21 13 -17 5
-20 11 -17 32 4 19 2 25 -8 21 -8 -3 -40 21 -78 59 -35 36 -69 65 -74 65 -6 0
-12 3 -14 8 -1 4 -23 20 -47 37 -24 16 -45 35 -48 42 -3 7 -11 13 -19 13 -7 0
-17 6 -21 13 -4 7 -26 24 -48 37 -22 13 -59 38 -82 57 -23 18 -45 33 -50 33
-5 0 -18 7 -28 15 -33 25 -181 122 -198 128 -8 3 -44 26 -79 50 -34 24 -73 47
-85 51 -13 4 -29 13 -36 19 -21 20 -95 57 -111 57 -9 0 -16 7 -16 15 0 15 10
19 44 15 27 -3 14 24 -13 28 -13 2 -28 -1 -34 -7 -16 -16 -47 -13 -47 3 0 8
-12 16 -27 18 -34 4 -41 24 -12 33 21 7 21 8 4 17 -11 7 -20 7 -24 1 -10 -16
-35 -21 -53 -12 -22 12 -12 49 13 49 21 0 26 25 6 33 -15 6 -47 -15 -47 -32 0
-19 -42 -12 -76 14 -18 14 -37 25 -42 25 -5 0 -27 14 -48 31 -22 17 -46 28
-56 26 -20 -6 -34 8 -18 18 17 10 0 26 -21 20 -10 -4 -28 -3 -40 0 -19 6 -19
8 -3 19 9 7 14 18 10 25 -4 6 -4 11 1 10 18 -3 33 2 33 11 0 12 -50 13 -69 1
-7 -5 -10 -14 -7 -20 5 -7 -3 -11 -21 -11 -19 0 -24 3 -15 9 10 6 7 10 -12 15
-14 3 -26 11 -26 16 0 6 -8 10 -17 10 -10 0 -36 11 -58 25 -22 13 -48 25 -57
25 -10 0 -18 5 -18 10 0 6 -5 10 -10 10 -6 0 -42 18 -81 40 -39 22 -77 40 -84
40 -8 0 -20 6 -27 14 -8 7 -24 17 -36 20 -12 4 -22 11 -22 16 0 5 -13 11 -30
15 -16 4 -32 11 -36 16 -3 5 -20 16 -37 24 -18 8 -45 24 -62 34 -16 11 -55 33
-85 50 -30 16 -75 41 -100 55 -25 14 -54 30 -65 36 -11 6 -38 22 -60 35 -22
13 -54 31 -71 39 -17 7 -35 19 -38 25 -4 6 -15 11 -26 11 -10 0 -20 6 -23 14
-3 8 -19 17 -36 21 -17 4 -31 13 -31 21 0 8 -10 14 -25 14 -13 0 -28 7 -33 16
-5 8 -24 18 -43 20 -19 3 -36 10 -37 15 -2 5 -18 16 -35 24 -18 8 -41 20 -52
27 -11 7 -22 14 -24 15 -2 2 1 8 7 15 8 11 3 13 -26 10 -28 -3 -42 2 -56 17
-11 12 -30 21 -43 21 -14 0 -23 6 -23 15 0 8 -8 15 -17 15 -10 0 -31 9 -48 20
-16 11 -37 20 -46 20 -9 0 -19 7 -23 15 -3 8 -14 15 -25 15 -11 0 -26 6 -33
13 -15 14 -101 57 -114 57 -5 0 -17 9 -27 20 -9 11 -24 20 -32 20 -9 0 -21 5
-28 10 -26 22 -84 56 -127 75 -25 10 -52 24 -60 31 -8 7 -26 18 -40 24 -37 16
-68 35 -87 53 -10 8 -30 19 -45 22 -16 4 -28 10 -28 14 0 8 -132 76 -167 86
-21 6 -34 44 -15 46 43 4 65 10 78 23 8 9 27 16 40 16 14 0 32 7 40 15 9 8 33
18 55 21 21 4 39 10 39 15 0 4 10 11 23 14 12 4 36 13 52 21 49 22 117 45 165
56 25 6 54 17 65 24 11 8 34 14 52 14 17 0 38 6 46 14 8 8 36 18 63 21 27 4
54 11 59 16 6 4 39 12 74 18 35 6 68 14 74 19 7 5 44 13 82 17 39 4 75 11 82
17 7 5 50 12 95 15 46 3 95 12 110 19 15 8 53 14 85 15 32 0 90 5 128 10 146
22 261 26 600 25 262 -2 358 -5 380 -15z m631 -105 c3 -8 20 -18 37 -22 l32
-7 -35 -8 c-35 -8 -92 3 -117 23 -7 5 -18 6 -25 2 -10 -6 -9 -3 1 9 17 22 99
24 107 3z m774 -246 c13 -11 35 -20 50 -20 15 0 35 -9 45 -20 10 -11 28 -20
40 -20 13 0 28 -7 35 -15 7 -8 18 -15 26 -15 14 0 103 -45 119 -61 5 -5 18 -9
30 -9 11 0 26 -9 33 -20 7 -11 23 -20 37 -20 28 0 33 -15 9 -28 -11 -6 -13
-11 -5 -16 6 -4 11 -2 11 3 0 19 49 12 67 -9 10 -11 22 -20 28 -20 6 0 26 -13
45 -29 l35 -29 -31 2 c-18 1 -41 12 -55 27 -13 13 -36 26 -50 27 -23 3 -26 0
-22 -23 5 -22 30 -38 65 -40 4 0 13 -7 20 -17 7 -9 27 -19 44 -23 27 -5 32 -3
30 12 -1 23 42 31 50 9 3 -8 19 -18 35 -21 27 -6 32 -27 6 -24 -7 1 -25 1 -42
0 -29 -1 -30 -3 -30 -48 0 -44 2 -47 33 -55 25 -7 32 -14 32 -33 0 -22 3 -25
28 -19 15 3 34 14 42 23 21 24 60 33 66 15 2 -8 6 -20 8 -28 4 -12 10 -12 30
-3 14 7 26 18 26 25 0 16 25 15 39 -2 10 -11 8 -16 -8 -21 -12 -3 -21 -11 -21
-17 0 -6 7 -7 18 -3 34 15 66 11 71 -10 4 -12 14 -20 26 -20 12 0 22 -8 26
-20 3 -12 12 -19 22 -17 16 3 98 -48 149 -94 15 -13 31 -24 34 -24 3 0 25 -19
49 -42 155 -152 226 -218 235 -218 5 0 10 -4 10 -10 0 -11 121 -130 132 -130
5 0 8 -4 8 -10 0 -5 15 -25 34 -44 18 -19 53 -59 77 -88 24 -29 56 -64 70 -78
14 -14 34 -40 44 -57 11 -18 25 -33 32 -33 7 0 13 -4 13 -10 0 -5 16 -27 35
-49 19 -21 35 -41 35 -44 0 -3 16 -23 35 -44 19 -21 35 -46 35 -56 0 -10 4
-16 9 -13 11 7 35 -20 27 -32 -3 -5 10 -26 29 -47 19 -21 35 -41 35 -46 0 -4
10 -19 23 -33 12 -13 27 -30 32 -38 20 -25 85 -136 85 -144 0 -4 7 -16 17 -26
19 -21 38 -52 55 -90 7 -16 16 -28 20 -28 4 0 8 -6 8 -13 0 -8 9 -24 20 -37
11 -13 20 -36 20 -52 0 -16 -9 -38 -20 -50 -11 -12 -20 -28 -20 -36 0 -8 -13
-34 -30 -59 -16 -24 -30 -50 -30 -57 0 -7 -9 -21 -20 -31 -11 -10 -20 -26 -20
-35 0 -9 -4 -20 -9 -25 -11 -12 -65 -106 -86 -151 -7 -17 -21 -36 -29 -44 -9
-7 -16 -20 -16 -30 0 -10 -7 -20 -15 -24 -8 -3 -15 -16 -15 -28 0 -13 -9 -31
-20 -41 -11 -9 -20 -25 -20 -36 0 -10 -7 -24 -15 -31 -8 -7 -15 -21 -15 -32 0
-10 -6 -21 -14 -24 -8 -3 -18 -18 -21 -34 -3 -16 -13 -31 -21 -34 -8 -3 -14
-17 -14 -31 0 -29 -7 -31 -32 -8 -26 23 -34 9 -19 -33 11 -30 11 -38 -3 -53
-9 -10 -16 -27 -16 -39 0 -13 -6 -22 -15 -22 -8 0 -15 -9 -15 -20 0 -11 -9
-29 -20 -40 -11 -11 -20 -26 -20 -32 -1 -7 -12 -31 -25 -53 -13 -22 -36 -65
-50 -95 -14 -30 -30 -62 -35 -70 -6 -8 -16 -26 -22 -40 -7 -14 -18 -31 -25
-38 -7 -7 -13 -22 -13 -32 0 -27 -17 -34 -37 -15 -15 16 -15 19 0 45 23 38 23
79 0 76 -11 -2 -20 -16 -24 -37 -4 -18 -12 -35 -18 -37 -6 -2 -11 -14 -11 -27
0 -18 6 -24 27 -27 36 -4 41 -32 14 -69 -12 -15 -21 -35 -21 -42 0 -8 -9 -17
-20 -20 -14 -3 -20 -14 -20 -31 0 -14 -4 -26 -10 -26 -5 0 -12 -16 -16 -35 -5
-31 -9 -34 -31 -29 -23 6 -24 5 -12 -14 11 -18 10 -24 -4 -40 -9 -10 -17 -23
-17 -29 0 -5 -9 -20 -20 -33 -11 -13 -20 -36 -20 -52 0 -18 -5 -28 -15 -28 -8
0 -17 -14 -21 -35 -3 -19 -10 -38 -15 -41 -5 -3 -23 -32 -39 -64 -16 -32 -34
-61 -40 -65 -5 -3 -10 -15 -10 -25 0 -10 -7 -25 -15 -34 -8 -8 -15 -21 -15
-29 0 -8 -7 -20 -15 -27 -8 -6 -17 -22 -21 -33 -4 -12 -19 -41 -35 -65 -16
-24 -29 -45 -29 -48 0 -4 -18 -43 -40 -89 -22 -46 -40 -88 -40 -95 0 -6 -4 -9
-9 -5 -5 3 -10 77 -10 165 0 88 -3 165 -7 171 -6 10 -26 298 -27 396 -1 34 8
51 19 40 4 -3 10 -27 15 -53 5 -26 11 -49 14 -52 2 -3 14 6 25 19 21 25 22 47
2 122 -6 24 -6 39 0 43 5 3 7 13 4 21 -3 8 -2 11 4 8 5 -3 14 13 20 37 10 37
10 43 -6 55 -16 12 -21 11 -31 -3 -7 -10 -16 -15 -19 -11 -9 8 6 68 16 62 11
-7 21 22 14 40 -4 8 -12 15 -19 15 -7 0 -18 7 -25 15 -11 13 -10 18 5 28 25
19 15 51 -18 55 -15 2 -27 9 -27 17 0 7 -7 26 -15 41 -12 24 -15 26 -16 9 0
-19 -1 -19 -8 -1 -6 16 -9 17 -16 6 -8 -13 4 -24 21 -20 11 2 44 -71 43 -94 0
-12 -3 -15 -6 -8 -4 10 -8 10 -19 1 -22 -18 -17 -45 12 -57 21 -10 25 -18 22
-50 -2 -29 -8 -38 -25 -40 -26 -4 -38 -29 -22 -49 9 -10 9 -17 1 -25 -18 -18
-27 19 -14 57 10 25 9 40 -1 70 -13 36 -15 37 -25 20 -10 -17 -11 -14 -12 22
0 23 5 45 10 48 17 11 11 23 -17 37 -25 12 -29 20 -33 71 -3 32 -10 61 -17 65
-6 4 -14 28 -18 54 -4 26 -13 53 -21 59 -8 6 -14 21 -14 34 0 21 -29 127 -51
190 -6 17 -15 48 -19 70 -4 22 -12 54 -18 70 -6 17 -19 62 -30 100 -11 39 -27
95 -36 125 -30 104 -56 214 -56 236 0 12 -7 29 -15 38 -20 19 -20 86 -1 86 10
0 14 -10 14 -30 -1 -37 -1 -37 43 -43 l36 -4 -11 37 c-7 28 -18 42 -40 51 -28
12 -31 19 -34 62 -2 37 0 47 12 47 13 0 16 14 15 78 0 67 -14 188 -18 155 0
-7 -10 -13 -21 -13 -27 0 -27 -48 -1 -82 23 -29 25 -69 3 -60 -10 3 -13 0 -10
-9 3 -8 11 -13 17 -11 14 3 15 -35 0 -44 -18 -11 -30 11 -31 54 0 45 -21 75
-32 46 -3 -9 -2 -22 4 -29 11 -13 -11 -40 -23 -28 -11 10 -8 48 4 60 6 6 9 21
7 34 -2 18 -9 23 -25 22 -19 -2 -23 4 -29 45 -3 26 -12 57 -20 69 -8 12 -14
41 -14 63 0 25 -5 43 -14 46 -7 3 -17 26 -20 52 -4 26 -13 56 -21 66 -8 11
-15 34 -15 51 0 17 -6 39 -14 50 -7 11 -16 42 -19 68 -4 27 -14 58 -22 70 -8
12 -15 34 -15 50 0 15 -7 41 -15 56 -8 16 -17 48 -21 72 -4 24 -10 49 -14 54
-4 6 -13 37 -20 70 -7 33 -16 65 -20 70 -4 6 -10 34 -13 64 -4 29 -10 58 -16
65 -5 6 -12 31 -16 56 -4 25 -14 53 -22 62 -8 9 -14 33 -13 55 3 61 1 73 -12
70 -9 -1 -14 15 -16 48 -2 33 -10 56 -23 68 -14 13 -19 31 -19 66 0 29 -6 53
-14 60 -7 6 -16 36 -18 67 -3 31 -9 59 -15 62 -6 4 -14 26 -18 50 -4 23 -13
49 -21 56 -8 8 -14 30 -14 49 0 19 -6 40 -14 46 -8 7 -17 35 -21 64 -4 29 -13
62 -21 74 -8 12 -14 40 -14 62 0 22 -4 43 -10 46 -19 12 -10 25 18 25 16 0 39
-9 52 -20z m-4177 -287 c-3 -7 -11 -13 -19 -13 -8 0 -14 -4 -14 -9 0 -19 20
-22 47 -8 37 19 53 12 53 -24 0 -23 -4 -30 -17 -28 -37 3 -51 -2 -56 -20 -4
-16 -1 -17 30 -11 18 5 43 5 55 2 14 -3 19 -1 14 6 -3 6 -1 14 4 17 7 5 5 12
-7 21 -17 12 -16 13 10 14 17 0 27 -5 27 -15 0 -8 8 -15 18 -16 9 0 40 -13 67
-30 28 -16 61 -33 75 -39 14 -5 32 -14 40 -19 8 -6 39 -22 69 -38 29 -15 56
-33 58 -40 3 -7 18 -13 34 -13 16 0 29 -4 29 -9 0 -9 134 -91 149 -91 3 0 14
-9 24 -20 9 -11 28 -20 41 -20 13 0 26 -7 30 -15 4 -11 -1 -15 -19 -15 -18 0
-23 -4 -19 -15 4 -8 15 -15 26 -15 10 0 17 4 14 9 -7 11 37 23 57 15 9 -3 18
-12 21 -20 3 -8 14 -14 23 -14 10 0 26 -9 36 -20 9 -11 25 -20 36 -20 10 0 21
-7 25 -15 3 -8 18 -20 33 -26 22 -8 24 -12 13 -19 -11 -7 -7 -10 15 -10 19 0
36 -8 45 -19 10 -14 21 -18 41 -14 20 4 32 0 45 -16 10 -12 27 -21 37 -21 10
0 34 -16 54 -35 21 -20 46 -35 60 -35 13 0 26 -7 29 -15 4 -8 18 -15 34 -15
25 0 56 -21 45 -31 -2 -3 5 -6 17 -6 11 -1 28 -8 37 -15 18 -15 74 -43 114
-57 15 -6 27 -15 27 -21 0 -5 5 -10 11 -10 15 0 118 -50 124 -61 4 -5 15 -9
25 -9 11 0 24 -9 30 -20 6 -12 21 -20 36 -20 13 0 27 -7 30 -15 4 -8 12 -15
19 -15 8 0 20 -6 27 -14 8 -7 24 -17 36 -20 13 -4 56 -30 96 -57 41 -27 88
-52 105 -55 17 -4 31 -10 31 -15 0 -4 8 -10 19 -14 10 -3 29 -14 41 -25 13
-11 34 -20 47 -20 14 0 23 -6 23 -15 0 -8 8 -15 19 -15 10 0 24 -7 31 -15 10
-12 10 -15 -3 -15 -24 0 -29 -17 -7 -23 11 -3 18 -1 14 4 -11 18 45 9 92 -15
36 -18 43 -25 28 -28 -10 -2 -32 -1 -49 2 -59 12 -422 2 -447 -11 -13 -8 -70
-16 -126 -20 -69 -4 -107 -10 -112 -19 -4 -7 -32 -15 -61 -18 -30 -2 -61 -10
-69 -17 -8 -7 -41 -15 -73 -17 -33 -3 -62 -10 -66 -17 -4 -6 -33 -16 -65 -21
-32 -5 -64 -14 -71 -20 -6 -5 -33 -13 -58 -16 -26 -4 -52 -13 -58 -20 -6 -8
-22 -14 -36 -14 -13 0 -38 -6 -56 -13 -18 -8 -50 -17 -72 -21 -22 -4 -53 -13
-70 -20 -31 -14 -80 -28 -179 -51 -32 -8 -63 -18 -69 -24 -6 -6 -22 -11 -37
-11 -14 -1 -43 -9 -65 -20 -22 -11 -56 -20 -75 -20 -19 0 -44 -7 -54 -15 -11
-8 -37 -15 -57 -15 -22 0 -41 -6 -46 -14 -10 -18 -118 -32 -127 -17 -4 6 -15
11 -24 10 -12 0 -13 -2 -3 -6 11 -5 11 -7 0 -14 -10 -6 -11 -9 -1 -9 6 0 12
-4 12 -9 0 -4 -24 -11 -52 -14 -29 -4 -54 -11 -56 -17 -2 -5 -18 -10 -35 -10
-18 0 -49 -9 -70 -20 -20 -11 -49 -20 -65 -20 -15 0 -37 -7 -49 -15 -13 -9
-49 -16 -87 -18 -51 -1 -62 -5 -51 -13 22 -16 7 -24 -47 -24 -36 0 -48 4 -48
15 0 22 -62 20 -76 -2 -10 -16 -7 -18 24 -20 39 -2 47 -7 37 -23 -5 -8 -23
-11 -50 -8 -33 4 -46 1 -58 -12 -8 -10 -35 -21 -59 -25 -23 -4 -50 -13 -58
-20 -8 -7 -35 -16 -60 -20 -24 -4 -51 -11 -60 -15 -48 -24 -130 -50 -156 -50
-18 0 -37 -6 -43 -14 -7 -8 -31 -18 -54 -21 -23 -4 -51 -14 -62 -21 -11 -8
-29 -14 -40 -14 -19 0 -138 -33 -180 -51 -11 -4 -40 -13 -65 -20 -25 -6 -49
-15 -55 -19 -5 -4 -30 -11 -55 -15 -25 -4 -56 -13 -70 -21 -14 -7 -46 -16 -72
-19 -26 -3 -50 -10 -53 -15 -3 -5 -29 -12 -56 -16 -28 -4 -53 -13 -56 -20 -3
-10 -23 -14 -59 -14 -37 0 -56 -4 -60 -14 -3 -8 -28 -16 -65 -20 -42 -5 -59
-11 -59 -21 0 -11 -12 -15 -43 -15 -23 0 -60 -9 -82 -20 -22 -11 -49 -20 -62
-20 -12 0 -26 -6 -30 -14 -4 -7 -27 -16 -51 -19 -24 -3 -51 -12 -61 -21 -10
-9 -28 -16 -40 -16 -19 0 -22 4 -17 23 3 12 6 32 6 45 0 20 3 21 21 12 23 -13
49 -7 49 11 0 6 -9 9 -20 6 -18 -5 -20 0 -20 39 0 29 5 47 14 50 8 3 17 21 21
40 8 43 21 36 27 -12 3 -29 0 -38 -13 -41 -18 -5 -31 -35 -20 -49 14 -19 31
-13 31 11 0 32 18 32 30 0 11 -28 32 -40 55 -32 12 5 12 10 0 34 -8 15 -15 34
-15 41 0 7 -7 15 -15 18 -9 4 -15 19 -15 35 0 26 9 34 34 30 5 -1 6 14 3 34
-4 24 -2 35 7 35 9 0 11 -18 9 -67 -5 -79 12 -118 41 -94 9 8 16 19 15 25 -1
6 -1 22 0 36 1 23 2 23 19 7 14 -15 15 -19 3 -26 -9 -6 -10 -11 -2 -15 6 -4 9
-12 6 -17 -8 -13 41 -30 71 -25 48 9 62 17 68 40 5 22 10 24 46 19 33 -5 40
-3 40 12 0 15 -6 16 -37 10 -45 -8 -41 -8 -76 -6 -22 1 -31 8 -39 29 -6 16
-21 33 -32 38 -14 6 -22 20 -24 40 -3 27 1 33 27 44 41 16 41 38 1 32 -27 -4
-30 -2 -30 23 0 21 -4 25 -19 20 -10 -3 -24 1 -31 10 -19 23 -30 18 -30 -15 0
-19 -7 -33 -20 -40 -12 -6 -20 -21 -20 -36 0 -14 -7 -32 -15 -40 -8 -9 -15
-26 -15 -40 0 -18 -5 -24 -21 -24 -17 0 -20 4 -15 23 3 12 6 28 6 35 0 6 7 12
15 12 11 0 15 11 15 35 0 22 6 38 15 41 8 4 15 17 15 29 0 13 7 31 16 39 9 9
20 32 25 51 6 19 14 35 19 35 6 0 10 9 10 20 0 11 9 29 20 40 11 11 20 29 20
40 0 11 4 20 8 20 5 0 23 28 40 63 59 112 93 171 161 272 127 188 154 225 162
225 5 0 9 7 9 15 0 9 7 18 15 21 8 4 15 10 15 15 0 13 92 129 102 129 4 0 8 9
8 20 0 14 11 22 40 30 22 6 46 8 53 5 6 -4 3 1 -7 9 -11 9 -24 16 -29 16 -12
0 58 88 140 179 24 25 43 49 43 54 0 4 7 7 15 7 8 0 15 5 15 10 0 6 33 43 73
83 39 40 91 93 114 117 47 50 101 100 109 100 2 0 19 16 37 35 17 19 35 35 38
35 4 0 33 25 64 55 32 30 63 55 69 55 7 0 19 8 28 18 9 9 39 33 68 52 29 19
60 42 69 50 10 8 31 24 47 36 81 58 130 91 144 97 8 4 42 25 75 47 33 21 84
50 113 64 29 14 55 32 58 41 3 8 16 15 28 15 11 0 27 4 35 9 18 12 70 -9 64
-26z m4957 -135 c0 -5 0 -12 0 -18 0 -5 -7 -10 -15 -10 -9 0 -15 -9 -15 -25 0
-32 -33 -34 -54 -3 -20 28 -20 38 -1 38 8 0 20 8 27 19 8 13 18 17 34 12 13
-3 24 -9 24 -13z m30 -28 c0 -5 -2 -10 -4 -10 -3 0 -8 5 -11 10 -3 6 -1 10 4
10 6 0 11 -4 11 -10z m80 -36 c6 -6 -21 -24 -36 -24 -7 0 -14 9 -17 21 -5 18
-2 20 21 14 15 -4 29 -9 32 -11z m-664 -1700 c8 -32 1 -59 -16 -59 -10 0 -16
13 -18 41 -2 32 1 41 13 41 8 0 18 -10 21 -23z m34 -124 c0 -46 -3 -60 -14
-60 -11 0 -15 13 -14 53 0 55 3 67 19 67 5 0 9 -27 9 -60z m-156 34 c9 -3 16
-10 16 -14 0 -12 -33 -5 -38 8 -4 14 0 15 22 6z m56 -60 c0 -8 -4 -14 -10 -14
-5 0 -10 9 -10 21 0 11 5 17 10 14 6 -3 10 -13 10 -21z m473 -37 c-4 -6 -8
-15 -8 -19 0 -5 -4 -8 -10 -8 -15 -1 -18 52 -3 61 16 10 32 -16 21 -34z
m-2412 -72 c103 -16 217 -106 271 -213 31 -64 33 -72 33 -177 0 -97 -3 -116
-25 -160 -32 -64 -130 -163 -201 -202 -63 -35 -67 -44 -61 -136 l4 -57 61 -29
c34 -16 169 -81 300 -145 131 -64 245 -116 252 -116 8 0 25 5 39 11 19 9 36 7
83 -9 80 -29 188 -70 303 -115 36 -14 108 -42 160 -63 179 -69 163 -56 565
-479 94 -98 187 -197 209 -219 21 -23 73 -77 115 -121 93 -97 148 -165 160
-198 8 -21 5 -33 -17 -66 -15 -22 -164 -178 -330 -346 -361 -364 -328 -347
-456 -231 -44 41 -112 104 -151 141 -63 60 -70 65 -82 49 -10 -14 -13 -179
-13 -804 l0 -786 -42 -27 c-24 -15 -77 -44 -118 -63 -41 -20 -86 -42 -100 -49
-41 -20 -291 -103 -400 -132 -237 -63 -595 -87 -875 -59 -175 18 -317 39 -368
55 -17 6 -86 27 -151 47 -240 73 -513 202 -536 252 -7 15 -10 279 -10 797 0
732 -1 775 -17 775 -10 0 -54 -35 -98 -78 -205 -196 -223 -212 -246 -212 -18
0 -85 62 -259 239 -283 286 -422 435 -432 462 -10 26 -2 45 44 103 110 140
810 855 874 892 44 26 201 94 217 94 5 0 23 6 40 14 52 24 108 46 185 72 39
14 84 32 100 40 15 7 33 14 40 14 7 0 26 7 41 15 25 12 31 12 47 0 29 -22 53
-18 139 24 374 183 513 255 528 272 13 17 17 40 17 111 0 111 17 154 69 175
109 44 130 58 166 104 84 111 81 214 -9 304 -96 96 -214 96 -310 -1 -43 -43
-47 -53 -72 -172 -11 -52 -74 -79 -124 -52 -29 15 -40 71 -29 141 13 83 42
133 119 209 71 70 132 100 225 111 50 5 61 5 126 -6z m-2091 -14 c0 -5 -16
-19 -35 -32 -19 -13 -35 -29 -35 -34 0 -6 -8 -18 -17 -26 -10 -9 -36 -36 -57
-61 -49 -58 -68 -54 -59 10 3 26 13 52 22 59 11 8 12 12 4 13 -7 0 -13 6 -13
14 0 18 48 30 64 17 8 -7 20 -3 37 13 32 30 89 47 89 27z m-245 -91 c-17 -19
-17 -21 0 -40 20 -22 14 -70 -10 -70 -8 0 -15 -7 -15 -15 0 -16 -9 -18 -47
-15 -17 1 -21 -3 -17 -14 5 -12 0 -16 -20 -16 -19 0 -26 -5 -26 -20 0 -12 -7
-20 -16 -20 -9 0 -14 -7 -12 -17 6 -29 51 -23 66 9 9 17 19 25 28 21 9 -3 31
11 54 36 25 26 40 36 40 26 0 -8 -4 -15 -10 -15 -5 0 -10 -7 -10 -15 0 -8 -9
-23 -20 -32 -11 -10 -20 -22 -20 -28 0 -6 -8 -18 -19 -26 -10 -9 -36 -43 -57
-75 -21 -33 -44 -65 -51 -72 -7 -7 -13 -22 -13 -33 0 -10 -4 -19 -10 -19 -5 0
-35 -39 -66 -87 -31 -49 -65 -100 -75 -115 -11 -15 -19 -32 -19 -38 0 -7 -16
-35 -35 -64 -19 -29 -35 -58 -35 -64 0 -6 -6 -15 -13 -19 -7 -4 -18 -20 -24
-35 -7 -16 -17 -28 -23 -28 -5 0 -10 -11 -10 -24 0 -26 -21 -48 -27 -29 -2 6
-13 21 -24 34 -10 12 -19 28 -19 36 0 11 -4 11 -20 3 -20 -11 -20 -11 0 -32
11 -12 22 -30 26 -40 3 -10 10 -18 15 -18 5 0 9 -11 9 -25 0 -14 -4 -25 -8
-25 -4 0 -13 -12 -20 -27 -19 -43 -44 -87 -52 -93 -4 -3 -11 -20 -15 -37 -3
-18 -12 -33 -18 -33 -12 -1 -57 -86 -57 -107 0 -12 -11 -16 -26 -10 -10 3 -24
-41 -18 -58 4 -9 0 -15 -10 -15 -11 0 -16 -9 -16 -28 0 -16 -8 -32 -18 -39
-11 -6 -25 -32 -32 -57 -7 -25 -21 -56 -31 -67 -11 -12 -19 -30 -19 -40 0 -10
-4 -21 -10 -24 -5 -3 -22 -32 -37 -63 -16 -31 -34 -63 -40 -70 -7 -7 -13 -20
-13 -28 0 -8 -9 -24 -20 -36 -11 -12 -20 -30 -20 -39 0 -10 -4 -20 -9 -24 -5
-3 -22 -31 -38 -63 -15 -31 -31 -59 -35 -62 -4 -3 -12 -17 -17 -30 -12 -28
-27 -52 -53 -89 -10 -13 -18 -32 -18 -42 0 -11 -7 -19 -15 -19 -9 0 -18 -12
-21 -30 -4 -16 -10 -30 -14 -30 -5 0 -11 -14 -15 -31 -4 -17 -13 -33 -21 -36
-8 -3 -14 -13 -14 -22 0 -9 -9 -27 -20 -41 -11 -14 -20 -30 -20 -36 0 -7 -7
-14 -15 -18 -8 -3 -15 -14 -15 -25 0 -11 -7 -26 -15 -34 -7 -8 -17 -26 -21
-41 -9 -36 -21 -33 -27 7 -14 83 -30 127 -49 127 -10 0 -18 6 -18 13 -1 29
-15 38 -48 26 -18 -6 -32 -15 -32 -21 0 -5 5 -6 11 -2 6 3 15 0 20 -7 16 -25
10 -30 -18 -15 -27 14 -28 13 -30 -17 -1 -17 -8 -34 -14 -37 -6 -4 -8 -16 -5
-27 4 -12 -1 -27 -14 -41 l-21 -22 31 0 c28 0 30 -2 20 -21 -7 -11 -9 -27 -6
-35 3 -8 1 -14 -5 -14 -6 0 -6 -7 1 -20 6 -11 19 -20 30 -20 14 0 18 -7 18
-30 -1 -17 -3 -28 -6 -26 -2 3 -11 -1 -18 -9 -16 -16 -19 -55 -4 -55 6 0 10 7
10 15 0 8 8 23 19 34 25 25 33 62 16 84 -11 16 -11 21 3 36 14 15 20 16 36 5
26 -17 29 -46 11 -81 -8 -15 -15 -33 -15 -39 0 -5 -13 -31 -30 -57 -17 -26
-30 -54 -30 -61 0 -7 -9 -21 -20 -31 -11 -10 -20 -24 -20 -31 0 -16 -48 -112
-60 -119 -6 -3 -10 -15 -10 -26 0 -11 -6 -22 -14 -25 -8 -3 -17 -20 -20 -39
-4 -18 -10 -35 -14 -37 -13 -6 -52 -67 -52 -81 0 -8 -9 -26 -20 -40 -11 -14
-20 -30 -20 -35 0 -5 -7 -15 -15 -22 -8 -7 -15 -20 -15 -30 0 -9 -9 -29 -20
-43 -11 -14 -20 -32 -20 -40 0 -16 -27 -30 -41 -21 -5 3 -7 9 -4 14 7 11 -23
60 -36 60 -5 0 -9 -16 -9 -35 0 -29 5 -37 25 -45 28 -11 33 -41 10 -60 -8 -7
-15 -18 -15 -25 0 -7 -7 -18 -15 -25 -8 -7 -15 -22 -15 -34 0 -12 -9 -29 -20
-39 -11 -9 -20 -28 -20 -41 0 -14 -6 -29 -12 -33 -17 -10 -58 -87 -58 -107 0
-9 -7 -16 -15 -16 -10 0 -15 -10 -15 -29 0 -16 -6 -34 -14 -40 -8 -7 -18 -25
-21 -41 -3 -16 -13 -34 -21 -41 -8 -6 -14 -17 -14 -25 0 -7 -6 -19 -12 -26 -7
-7 -25 -38 -39 -68 l-26 -55 -18 40 c-9 22 -19 56 -22 75 -3 19 -12 39 -20 43
-7 4 -13 22 -13 38 0 17 -7 43 -15 57 -18 32 -34 72 -51 127 -24 79 -46 140
-54 156 -4 8 -6 43 -3 77 5 53 3 62 -11 62 -9 0 -16 -5 -16 -11 0 -5 -5 -7
-10 -4 -5 3 -10 35 -10 71 0 63 1 65 23 58 30 -9 29 -7 34 -56 6 -52 11 -58
27 -36 16 22 9 71 -15 97 -19 21 -18 71 3 98 7 8 5 18 -6 28 -9 9 -16 12 -16
6 0 -6 -7 -11 -15 -11 -11 0 -15 11 -15 40 0 38 -19 59 -21 23 -5 -118 -23
-172 -35 -109 -4 22 -13 51 -20 65 -8 14 -14 42 -14 62 0 20 -6 49 -14 64 -8
15 -17 59 -21 98 -4 39 -14 77 -21 85 -9 9 -14 37 -14 80 0 37 -5 85 -11 107
-6 22 -15 87 -20 145 -32 361 -37 440 -34 485 3 28 9 136 15 240 14 254 20
313 30 340 5 12 12 78 15 146 4 68 13 138 20 154 7 17 16 60 20 97 4 38 13 72
21 79 9 7 14 32 14 68 1 33 7 64 15 75 8 11 15 33 15 50 0 16 9 57 21 90 21
64 46 86 99 86 14 0 42 9 63 20 20 11 52 20 71 20 18 0 39 6 45 14 7 8 35 17
64 21 28 4 69 14 91 21 21 8 55 14 76 14 24 0 40 5 43 14 4 9 28 17 61 21 31
4 56 11 56 15 0 4 16 11 36 15 20 3 43 13 51 21 8 8 31 14 51 14 20 0 51 9 67
20 19 13 47 20 77 20 33 0 47 4 45 13 -1 8 14 12 55 11 53 -1 57 0 55 20 -2
19 3 21 50 21 42 -1 52 2 50 14 -1 11 10 18 38 24 22 5 53 15 68 23 16 8 39
14 51 14 12 0 30 6 41 14 11 7 42 17 70 21 27 4 58 13 69 21 11 8 30 14 41 14
11 1 38 9 60 20 22 11 54 19 71 20 17 0 37 6 43 14 6 7 34 16 61 20 27 4 52
10 54 15 3 5 25 12 50 15 24 4 52 13 62 21 11 8 37 15 60 15 26 0 49 7 64 20
24 21 51 24 85 11 22 -9 45 7 38 26 -4 9 9 13 44 13 41 0 49 -3 50 -19 1 -14
-3 -17 -18 -14 -10 3 -19 0 -19 -6 0 -7 -12 -9 -32 -6 -31 6 -32 5 -13 -9 23
-17 22 -18 -29 -37 -22 -8 -41 -20 -44 -28 -4 -11 11 -12 72 -8 64 4 78 2 86
-12 9 -15 9 -14 10 2 0 10 8 17 19 17 10 0 26 11 35 25 9 14 20 24 24 23 4 -1
22 3 40 10 l34 12 -21 33 c-21 34 -27 68 -14 80 3 4 22 7 41 7 34 0 35 0 17
-20z m-2141 -21 c-3 -5 -10 -7 -15 -3 -5 3 -7 10 -3 15 3 5 10 7 15 3 5 -3 7
-10 3 -15z m2046 -14 c0 -31 -24 -43 -45 -22 -8 8 -20 18 -27 20 -20 8 11 27
45 27 22 0 27 -4 27 -25z m6890 -107 c6 -21 15 -38 20 -38 6 0 10 -8 10 -17 0
-10 6 -30 13 -44 8 -14 14 -40 15 -58 0 -19 10 -43 21 -55 13 -14 21 -36 21
-58 0 -20 7 -41 15 -48 8 -7 15 -28 15 -47 0 -19 6 -41 14 -48 7 -8 17 -34 20
-59 4 -24 14 -50 21 -56 10 -8 15 -31 15 -63 0 -33 5 -54 15 -61 9 -6 19 -35
24 -64 4 -29 13 -58 20 -65 6 -6 11 -22 11 -37 0 -14 9 -58 20 -99 11 -41 20
-95 20 -120 0 -25 7 -58 14 -73 9 -17 16 -64 17 -120 1 -51 8 -109 15 -128 11
-29 35 -343 35 -460 0 -19 1 -48 2 -65 7 -112 -19 -715 -33 -765 -5 -19 -13
-71 -16 -115 -3 -44 -10 -93 -16 -110 -6 -16 -16 -68 -23 -115 -19 -126 -35
-201 -51 -233 -8 -16 -14 -41 -14 -55 0 -45 -11 -72 -30 -72 -9 0 -30 -6 -46
-14 -16 -8 -51 -16 -77 -17 -29 -2 -51 -8 -56 -17 -5 -8 -32 -16 -69 -19 -38
-4 -59 -10 -55 -16 3 -6 1 -7 -5 -3 -6 3 -31 -5 -56 -18 -25 -13 -65 -27 -88
-31 -24 -4 -46 -12 -49 -17 -3 -5 -29 -12 -58 -17 -29 -5 -56 -13 -60 -18 -3
-6 -25 -14 -47 -17 -35 -6 -42 -4 -46 11 -8 32 1 44 23 30 17 -10 23 -9 35 8
13 18 13 20 0 23 -15 3 -20 15 -17 35 0 4 -4 7 -9 7 -6 0 -10 -7 -10 -15 0 -8
-4 -15 -10 -15 -5 0 -7 7 -4 15 4 10 0 15 -12 15 -11 0 -15 -4 -9 -8 26 -19
14 -69 -21 -82 -27 -11 -31 -25 -9 -34 29 -11 15 -24 -32 -31 -27 -4 -53 -11
-60 -17 -7 -5 -16 -7 -20 -5 -5 3 -26 -4 -48 -15 -22 -11 -60 -24 -84 -29 -25
-5 -48 -14 -52 -20 -3 -6 -26 -13 -50 -16 -24 -3 -53 -12 -64 -18 -11 -7 -44
-18 -73 -25 -28 -7 -55 -16 -58 -21 -3 -5 -19 -9 -36 -9 -16 0 -44 -6 -61 -14
-44 -19 -169 -56 -187 -56 -8 0 -26 -6 -40 -13 -15 -8 -47 -17 -74 -20 -26 -4
-57 -14 -69 -22 -12 -8 -35 -15 -51 -15 -16 0 -37 -7 -46 -15 -9 -8 -38 -17
-65 -20 -27 -4 -54 -10 -60 -15 -6 -5 -30 -12 -54 -16 -23 -4 -45 -13 -48 -20
-3 -9 -21 -14 -48 -14 -25 0 -52 -7 -66 -18 -26 -18 -46 -21 -66 -9 -18 11
-16 47 2 47 9 0 19 8 23 18 6 14 20 17 81 18 58 1 77 4 87 18 7 10 10 24 8 31
-3 7 4 15 15 18 24 6 28 32 6 41 -16 6 -65 -9 -65 -19 0 -4 5 -15 10 -25 9
-16 6 -21 -15 -26 -14 -3 -53 -4 -85 -2 -33 2 -60 1 -60 -3 0 -5 -10 -17 -21
-28 -15 -14 -23 -34 -24 -63 -1 -24 -3 -49 -4 -55 0 -8 -15 -13 -35 -13 -18 0
-44 -8 -57 -19 -13 -10 -43 -22 -66 -26 -24 -4 -45 -10 -48 -15 -3 -4 -22 -11
-42 -15 -21 -4 -57 -15 -80 -26 -23 -10 -51 -19 -62 -19 -11 0 -23 -4 -26 -10
-3 -5 -14 -10 -23 -9 -11 0 -12 3 -4 6 6 2 12 11 12 18 0 8 14 22 30 32 17 9
30 20 30 24 0 4 33 41 73 83 111 116 137 145 137 152 0 3 23 29 50 56 28 27
50 56 50 65 0 8 8 27 18 41 10 15 22 35 25 45 4 10 11 15 17 12 6 -3 10 4 10
17 0 30 15 52 29 44 7 -5 11 4 11 23 0 27 4 31 26 31 21 0 24 4 19 20 -5 16
16 64 36 80 7 6 22 33 64 116 17 32 35 62 42 67 6 4 14 20 18 36 3 16 13 35
21 42 8 6 14 16 14 21 0 5 9 21 20 35 11 14 20 34 20 44 0 11 4 19 9 19 5 0
13 10 17 22 4 13 19 39 35 58 15 19 31 48 35 63 3 16 13 31 20 34 8 3 14 12
14 20 0 12 23 63 52 113 5 8 11 23 14 33 8 23 25 22 31 -3 3 -11 9 -20 13 -20
16 0 18 28 4 48 -9 13 -11 28 -6 42 7 20 9 20 21 6 18 -22 31 -20 31 4 0 12
-7 20 -16 20 -11 0 -14 5 -10 16 3 9 6 22 6 30 0 23 28 16 32 -8 5 -34 23 -28
26 10 2 18 -1 32 -7 32 -17 0 -13 37 4 44 8 3 15 16 15 28 0 26 49 57 54 35 2
-7 7 -25 13 -42 12 -37 -2 -99 -20 -88 -7 4 -7 0 2 -10 18 -22 43 -22 40 1 -3
27 11 51 27 45 19 -7 18 21 -1 40 -8 9 -16 30 -17 49 -3 29 1 35 30 47 19 9
31 20 28 28 -3 7 2 16 11 21 9 5 13 14 9 21 -11 17 -46 13 -46 -5 0 -9 -9 -18
-19 -21 -11 -3 -22 -12 -25 -20 -9 -22 -28 -4 -20 20 12 40 106 227 120 238 8
6 14 17 14 24 0 17 49 123 60 130 5 3 11 18 15 34 3 16 13 32 21 35 8 3 14 12
14 19 0 8 7 20 15 27 8 7 15 21 15 31 0 9 6 24 14 31 7 8 17 25 21 38 4 14 16
36 26 49 11 13 19 30 19 37 0 8 4 14 9 14 5 0 12 12 16 27 3 15 12 31 18 35 6
4 17 22 23 40 6 18 17 32 23 30 6 -1 11 8 11 20 0 13 7 32 15 42 8 11 15 27
15 36 0 8 9 23 20 33 11 9 20 23 20 31 0 8 14 30 30 48 17 18 30 43 30 56 0
13 9 35 20 49 11 14 20 32 20 39 0 8 4 14 8 14 9 0 62 101 62 118 0 7 6 12 13
12 6 0 23 30 37 66 13 36 30 70 37 76 7 6 13 19 13 29 0 10 4 21 10 24 5 3 20
27 33 53 14 26 36 67 50 92 15 25 31 57 38 73 11 28 39 37 39 13 0 -8 5 -18
11 -22 9 -5 10 8 5 48 -6 43 -4 57 8 68 9 7 16 18 16 25 0 6 9 20 20 30 11 10
20 31 20 47 0 17 4 27 10 23 6 -3 10 0 10 9 0 21 49 116 61 116 5 0 9 -13 9
-28 0 -36 8 -44 31 -32 22 12 30 -6 16 -37 -13 -28 -37 -30 -44 -3 -3 11 -13
20 -22 20 -15 0 -18 -12 -19 -80 -2 -70 0 -80 18 -90 14 -8 20 -8 20 0 0 7 6
8 19 1 10 -6 21 -7 25 -4 3 3 6 1 6 -5 0 -19 18 -14 23 6 4 14 6 14 12 -5 4
-14 15 -23 27 -23 18 0 19 2 7 18 -8 9 -18 20 -24 24 -5 4 0 25 14 52 21 43
21 74 0 61 -5 -4 -9 0 -9 7 1 46 59 51 71 6 5 -19 3 -28 -8 -32 -11 -5 -8 -11
13 -31 15 -14 32 -25 39 -25 7 0 18 -7 26 -16 10 -12 10 -17 0 -23 -10 -6 -9
-10 4 -15 11 -4 14 -12 10 -25 -8 -27 15 -61 43 -61 15 0 21 -4 17 -12 -4 -7
2 -3 13 9 22 25 19 61 -4 70 -8 3 -12 9 -9 13 3 4 -2 10 -10 14 -20 7 -19 36
3 53 12 10 13 16 5 19 -7 3 -9 12 -6 20 4 12 0 13 -21 5 -14 -6 -47 -10 -73
-9 l-47 1 23 18 c13 11 29 19 35 19 8 0 11 11 8 30 -4 30 -16 39 -27 20 -13
-21 -35 -10 -35 18 0 36 -10 49 -40 54 -23 4 -24 5 -5 13 10 5 28 18 40 30 11
11 17 16 13 11 -17 -22 -8 -37 20 -34 22 2 33 -5 57 -37 31 -42 36 -62 22 -82
-5 -7 -1 -15 11 -22 18 -10 20 -8 16 22 -3 17 -6 51 -8 75 -3 31 -12 51 -35
74 -18 18 -34 43 -37 55 -4 13 -11 23 -16 23 -6 0 -8 12 -4 30 10 51 -25 34
-40 -20 -8 -27 -15 -34 -32 -33 -16 2 -23 -4 -28 -21 -3 -14 -12 -27 -20 -30
-8 -3 -14 -12 -14 -19 0 -8 -12 -19 -27 -26 -34 -16 -51 -1 -34 31 24 47 38
68 54 86 10 10 17 28 17 40 0 11 5 24 10 27 6 3 10 15 10 26 0 10 9 28 19 38
10 10 22 30 26 43 5 12 15 33 24 45 l16 21 17 -31 c10 -18 22 -49 28 -69z
m-6933 56 c-3 -3 -12 -4 -19 -1 -8 3 -5 6 6 6 11 1 17 -2 13 -5z m6801 -356
c2 -9 -6 -18 -18 -21 -14 -4 -20 0 -20 12 0 33 32 41 38 9z m-58 -132 c0 -18
-14 -34 -26 -29 -21 8 -17 33 6 33 11 0 20 -2 20 -4z m-1393 -738 c-3 -8 -6
-5 -6 6 -1 11 2 17 5 13 3 -3 4 -12 1 -19z m-20 -42 c-3 -8 -9 -30 -12 -49 -5
-28 -3 -37 12 -47 14 -9 15 -10 1 -6 -9 3 -19 0 -22 -7 -4 -7 -4 12 -2 41 4
35 2 51 -5 46 -7 -4 -7 1 0 15 13 23 36 29 28 7z m-5884 -929 c2 -240 5 -348
13 -358 7 -8 15 -48 19 -89 4 -41 13 -82 20 -90 7 -8 15 -42 19 -75 4 -33 13
-78 21 -100 8 -22 14 -55 15 -73 0 -19 6 -35 15 -38 10 -4 15 -21 15 -53 0
-26 6 -56 14 -67 8 -11 18 -38 21 -60 4 -21 12 -44 17 -51 5 -6 13 -38 18 -71
6 -33 17 -73 25 -88 8 -16 15 -41 15 -55 0 -15 7 -33 16 -40 14 -11 16 -28 12
-99 -3 -47 -3 -75 -1 -62 3 12 11 22 19 22 8 0 14 -1 14 -2 8 -82 15 -115 26
-121 8 -5 14 -25 14 -47 0 -27 4 -40 14 -40 9 0 15 -19 19 -61 3 -34 10 -65
15 -68 5 -3 13 -26 17 -51 4 -25 13 -55 21 -67 8 -12 14 -45 14 -72 0 -37 5
-53 17 -59 13 -8 17 -24 17 -66 1 -35 5 -56 12 -56 19 0 27 -33 11 -45 -8 -5
-14 -24 -13 -42 1 -28 -3 -32 -31 -38 -35 -6 -43 -19 -18 -29 8 -3 15 -17 15
-31 0 -14 5 -25 11 -25 5 0 8 -4 5 -9 -3 -5 2 -12 12 -17 40 -17 56 -10 41 18
-9 16 -8 19 3 12 14 -8 0 11 -34 50 -17 18 -17 20 0 32 9 7 19 8 20 3 2 -5 10
-9 18 -9 12 0 15 -14 13 -65 -1 -36 -6 -68 -11 -71 -12 -7 10 -44 26 -44 14 0
24 -22 47 -95 6 -22 20 -56 30 -75 11 -19 19 -46 19 -60 0 -15 7 -35 15 -46 8
-10 15 -37 15 -59 0 -23 9 -53 20 -70 11 -17 20 -47 20 -68 0 -24 5 -40 15
-43 8 -4 15 -18 15 -34 0 -15 9 -56 20 -90 11 -34 20 -71 20 -82 0 -10 6 -31
14 -47 8 -15 16 -53 18 -84 2 -34 8 -59 15 -62 21 -7 16 -82 -5 -97 -10 -7
-22 -26 -26 -41 -3 -15 -10 -26 -14 -23 -4 2 -13 -2 -20 -10 -10 -11 -10 -14
0 -14 9 0 9 -3 -2 -10 -12 -7 -12 -12 0 -34 13 -25 14 -25 27 -6 23 33 35 24
28 -21 -6 -36 -5 -40 11 -37 16 3 19 11 17 48 -4 85 -2 102 12 123 14 20 14
20 19 -4 6 -29 16 -102 19 -144 2 -25 -2 -31 -22 -33 -23 -4 -23 -6 -18 -62 5
-42 3 -60 -6 -64 -6 -3 1 -4 17 -3 29 2 29 3 30 59 1 32 3 58 4 58 14 0 41
-50 42 -75 0 -39 19 -105 29 -105 5 0 11 -23 13 -51 3 -28 11 -55 18 -59 7 -4
16 -29 21 -56 5 -26 13 -50 18 -54 6 -3 13 -30 17 -59 4 -30 18 -84 31 -120
14 -36 28 -84 33 -106 5 -22 15 -58 24 -80 16 -43 21 -85 9 -85 -5 0 -17 7
-27 15 -11 8 -30 15 -42 15 -12 0 -27 7 -34 15 -7 8 -23 15 -36 15 -12 0 -29
7 -37 15 -8 7 -26 17 -40 20 -15 4 -31 13 -37 20 -6 8 -24 17 -40 20 -16 3
-34 13 -41 21 -6 8 -24 14 -39 14 -16 0 -30 7 -34 15 -3 8 -14 15 -24 15 -11
0 -31 9 -45 20 -14 11 -32 20 -40 20 -8 0 -17 6 -20 14 -3 8 -19 17 -36 21
-17 4 -31 13 -31 20 0 7 -13 18 -30 24 -16 5 -30 15 -30 20 0 6 -11 11 -25 11
-14 0 -28 6 -31 14 -3 8 -16 17 -29 20 -14 4 -29 15 -35 26 -6 11 -16 20 -23
20 -7 0 -32 14 -57 30 -25 16 -55 30 -67 30 -14 0 -23 6 -23 15 0 8 -4 15 -8
15 -5 0 -19 9 -32 20 -13 11 -29 20 -37 20 -7 0 -13 7 -13 15 0 11 7 14 26 9
20 -5 26 -2 31 15 3 11 9 21 14 21 5 0 9 9 9 20 0 11 -4 20 -10 20 -5 0 -10
-9 -10 -20 0 -13 -7 -20 -19 -20 -10 0 -24 -7 -31 -15 -18 -21 -47 -19 -60 5
-6 11 -20 20 -30 20 -11 0 -20 4 -20 9 0 5 -20 22 -45 38 -24 15 -44 34 -45
41 0 6 -6 12 -14 12 -7 0 -29 14 -47 31 -19 16 -44 34 -56 39 -13 5 -23 16
-23 24 0 8 -8 17 -18 20 -46 15 -592 564 -592 595 0 4 -16 22 -35 41 -19 19
-35 40 -35 46 0 7 -7 14 -15 18 -8 3 -15 12 -15 21 0 8 -4 15 -8 15 -5 0 -24
21 -42 48 -19 26 -38 49 -42 50 -4 2 -8 12 -8 22 0 10 -4 22 -10 25 -5 3 -10
20 -10 36 0 26 -3 29 -20 24 -14 -4 -22 -1 -27 12 -3 10 -15 26 -25 36 -10 10
-16 22 -13 28 4 5 0 9 -8 9 -8 0 -20 14 -26 30 -5 17 -15 30 -20 30 -6 0 -11
16 -11 35 0 32 4 37 45 56 51 24 56 39 20 55 -27 13 -35 9 -35 -19 0 -16 -41
-67 -55 -67 -1 0 -8 14 -14 30 -5 17 -14 30 -19 30 -6 0 -12 10 -16 23 -3 12
-19 37 -36 55 -16 18 -33 44 -36 58 -3 13 -10 24 -14 24 -4 0 -11 15 -14 34
-4 19 -13 37 -21 40 -17 6 -21 61 -5 71 6 4 24 32 41 63 16 31 41 75 54 97 23
38 28 48 40 78 3 6 14 26 25 42 25 38 40 72 40 91 0 8 5 14 11 14 5 0 15 14
20 30 6 17 15 30 19 30 4 0 13 12 19 28 6 15 15 35 21 45 5 9 15 25 20 35 6 9
15 29 21 45 6 15 15 27 20 27 4 0 11 16 15 35 3 19 12 35 19 35 8 0 16 14 20
30 4 17 15 35 25 40 12 7 16 17 13 31 -4 13 0 27 8 33 8 6 25 33 39 61 14 27
46 87 73 133 26 46 47 92 47 103 0 10 4 19 10 19 5 0 16 15 25 33 23 50 74
140 90 157 8 9 15 26 15 38 0 11 6 25 13 29 7 4 25 34 40 66 15 31 32 57 37
57 6 0 10 7 10 15 0 13 35 72 60 102 5 7 10 16 10 20 1 4 9 26 20 48 11 22 19
46 20 53 0 6 9 12 19 12 17 0 18 -4 10 -37 -8 -38 0 -52 29 -53 6 0 12 -9 12
-20 0 -13 7 -20 20 -20 21 0 28 24 10 35 -11 7 -9 63 4 84 4 7 15 10 23 7 9
-4 20 5 31 24 9 16 23 30 31 30 15 0 61 45 61 61 0 5 7 9 15 9 8 0 14 3 13 8
-2 4 2 8 7 10 6 1 10 -4 10 -10 0 -7 8 -16 18 -20 23 -10 18 -44 -6 -40 -9 2
-17 -2 -17 -8 0 -5 7 -10 15 -10 12 0 14 -10 11 -42 -3 -34 1 -49 20 -71 28
-33 30 -50 9 -67 -13 -10 -19 -10 -33 4 -22 19 -53 23 -34 4 7 -7 12 -22 12
-35 0 -15 6 -23 18 -23 13 0 14 -2 3 -9 -9 -6 -10 -10 -2 -16 7 -4 21 5 32 20
17 20 24 23 35 14 16 -13 19 -39 5 -39 -5 0 -12 6 -14 13 -3 6 -8 -3 -12 -20
-5 -23 -13 -33 -26 -33 -28 0 -23 -13 11 -28 26 -12 30 -19 30 -53 0 -21 -4
-39 -10 -39 -5 0 -10 5 -10 10 0 6 -4 10 -10 10 -21 0 -9 -30 19 -46 16 -10
32 -26 34 -36 3 -10 10 -18 16 -18 15 0 28 33 15 37 -36 13 -50 47 -19 48 25
0 32 37 10 55 -17 14 -21 80 -4 80 6 0 13 -9 16 -19 3 -11 12 -22 20 -25 12
-5 14 4 8 61 -6 70 -11 86 -24 79 -4 -3 -14 7 -22 22 -7 15 -19 34 -26 43 -17
21 -28 150 -15 175 12 23 5 37 -20 47 -10 3 -18 13 -18 22 0 8 -9 15 -20 15
-15 0 -20 7 -20 25 0 18 5 25 19 25 12 0 21 -9 25 -25 8 -32 36 -33 36 -1 0
13 -6 26 -14 29 -7 3 -16 22 -20 41 -8 43 -30 47 -44 8 -12 -34 -40 -64 -53
-57 -15 10 -10 65 6 71 16 7 20 39 6 48 -5 3 -11 -1 -15 -9 -8 -22 -36 -18
-36 4 0 11 7 27 15 35 9 8 21 29 26 46 6 16 15 30 20 30 5 0 9 9 9 21 0 11 9
32 20 46 11 14 20 31 20 38 0 7 7 18 15 25 8 7 15 21 15 31 0 11 5 19 10 19 6
0 15 10 20 23 33 82 44 106 48 103 2 -3 4 -159 5 -349z m-231 -122 c3 -14 1
-28 -3 -31 -5 -3 -9 -21 -9 -40 0 -30 -3 -34 -25 -34 -28 0 -29 -3 -15 -30 8
-14 4 -23 -15 -42 -14 -12 -25 -33 -25 -45 0 -25 -27 -56 -41 -47 -18 11 6 84
27 84 10 0 14 12 14 40 0 29 4 40 15 40 8 0 18 12 21 27 4 15 13 34 21 41 7 7
13 24 13 38 0 32 16 31 22 -1z m-572 -121 c0 -2 -7 -4 -15 -4 -8 0 -15 4 -15
10 0 5 7 7 15 4 8 -4 15 -8 15 -10z m62 -30 c-3 -21 0 -34 7 -34 13 0 14 -39
2 -59 -10 -16 -34 -5 -28 12 2 7 -3 23 -13 37 -27 40 -28 44 -20 66 6 16 15
20 32 17 21 -4 23 -9 20 -39z m588 27 c0 -6 -4 -13 -10 -16 -5 -3 -10 1 -10 9
0 9 5 16 10 16 6 0 10 -4 10 -9z m77 -103 c-3 -7 -5 -2 -5 12 0 14 2 19 5 13
2 -7 2 -19 0 -25z m47 -393 c3 -8 1 -15 -4 -15 -6 0 -10 7 -10 15 0 8 2 15 4
15 2 0 6 -7 10 -15z m7608 -864 c-16 -10 -32 -48 -32 -75 0 -14 -3 -26 -7 -26
-12 -1 -44 -49 -49 -73 -2 -12 -7 -39 -10 -59 -6 -37 -17 -48 -29 -28 -9 15
-25 12 -25 -5 0 -8 5 -15 10 -15 6 0 10 -16 10 -35 0 -19 -4 -35 -10 -35 -5 0
-14 -17 -20 -37 -6 -21 -17 -47 -25 -57 -8 -11 -15 -28 -15 -37 0 -10 -6 -22
-12 -26 -15 -9 -48 -69 -48 -87 0 -6 -18 -38 -40 -71 -22 -33 -40 -68 -40 -77
0 -10 -4 -18 -10 -18 -5 0 -10 -6 -10 -14 0 -8 -7 -22 -16 -31 -31 -30 -64
-86 -64 -105 0 -11 -6 -20 -14 -20 -8 0 -17 -11 -20 -25 -4 -14 -13 -25 -21
-25 -10 0 -15 -10 -15 -30 0 -16 -3 -30 -7 -30 -9 0 -53 51 -53 61 0 5 -15 24
-34 42 -19 19 -37 48 -41 66 -9 40 -25 31 -25 -15 0 -23 5 -34 15 -34 8 0 17
-11 21 -25 3 -14 9 -25 14 -25 11 0 45 -33 65 -63 17 -27 17 -28 -4 -51 -11
-12 -21 -30 -21 -39 0 -9 -7 -17 -15 -17 -8 0 -15 -9 -15 -19 0 -23 -16 -36
-25 -21 -12 20 -26 10 -15 -11 12 -22 -2 -50 -23 -46 -7 1 -13 -10 -15 -25 -2
-16 -9 -28 -16 -28 -8 0 -19 -14 -26 -30 -7 -17 -20 -36 -30 -43 -9 -7 -20
-21 -24 -33 -3 -12 -20 -34 -36 -50 -16 -16 -30 -32 -30 -35 -1 -30 -491 -530
-537 -549 -7 -3 -45 -34 -84 -70 -114 -103 -121 -110 -130 -110 -5 0 -21 -12
-37 -28 -16 -15 -44 -38 -62 -52 -18 -14 -37 -30 -44 -35 -6 -6 -32 -23 -58
-38 -27 -15 -48 -34 -48 -42 0 -8 -8 -15 -18 -15 -11 0 -27 -9 -37 -20 -10
-11 -24 -20 -30 -20 -7 0 -15 -7 -19 -15 -3 -8 -14 -15 -25 -15 -11 0 -28 -8
-38 -18 -10 -10 -39 -29 -65 -41 -27 -13 -48 -27 -48 -32 0 -5 -9 -9 -20 -9
-11 0 -23 -7 -26 -15 -8 -20 -68 -49 -72 -35 -2 5 -12 10 -23 10 -10 0 -28 9
-39 20 -11 11 -31 20 -44 20 -13 0 -26 6 -29 14 -3 8 -19 17 -36 21 -17 4 -31
10 -31 15 0 5 -10 12 -22 16 -13 4 -25 10 -28 13 -10 14 -99 61 -114 61 -9 0
-16 4 -16 9 0 5 -14 14 -30 20 -17 5 -33 17 -36 26 -4 9 -18 15 -35 15 -16 0
-29 5 -29 11 0 5 -13 15 -29 20 -16 6 -32 17 -35 25 -3 8 -19 14 -36 14 -16 0
-29 3 -29 8 4 26 -3 34 -26 28 -18 -5 -28 -1 -37 14 -7 11 -23 20 -35 20 -12
0 -26 6 -30 14 -4 7 -30 23 -58 35 -27 12 -58 26 -67 31 -10 6 -28 16 -40 23
-13 6 -27 18 -31 25 -4 6 -16 12 -27 12 -10 0 -25 7 -33 15 -8 7 -27 17 -42
21 -14 4 -29 13 -32 20 -3 8 -11 14 -18 14 -6 0 -24 11 -40 24 -30 26 -144 86
-163 86 -7 0 -15 6 -18 14 -3 8 -15 17 -27 21 -21 6 -20 7 7 15 22 7 37 5 57
-7 15 -9 34 -13 44 -9 15 5 15 9 -7 31 -18 19 -33 25 -71 25 -33 0 -49 -5 -53
-15 -6 -16 -31 -19 -58 -9 -26 10 -18 24 14 24 19 0 33 7 40 20 6 11 21 20 35
20 32 0 56 10 49 21 -3 5 -17 9 -32 9 -43 0 -72 11 -72 27 0 19 -52 14 -58 -6
-3 -8 0 -11 5 -8 11 7 63 -14 63 -25 0 -4 -18 -12 -39 -18 -22 -6 -41 -15 -43
-22 -5 -13 -58 -3 -58 11 0 5 14 11 31 15 18 3 29 11 27 18 -7 20 -34 21 -53
1 -17 -16 -17 -15 -14 19 l5 35 -31 -16 c-38 -20 -57 -20 -79 2 -10 9 -28 17
-42 17 -14 0 -27 7 -30 15 -4 8 -16 15 -29 15 -12 0 -30 9 -40 20 -10 11 -29
20 -42 20 -12 0 -23 4 -23 9 0 6 -23 21 -51 35 -27 14 -57 33 -65 41 -9 8 -24
15 -35 15 -11 0 -32 8 -47 18 -40 27 -64 41 -92 55 -14 6 -29 15 -35 20 -40
30 -89 57 -105 57 -11 0 -20 4 -20 8 0 9 -77 62 -89 62 -7 0 -69 30 -101 49
-8 5 -26 13 -40 19 -18 7 32 10 180 11 113 1 241 6 285 11 171 21 271 37 298
48 16 7 46 12 68 12 22 0 53 7 68 15 16 8 48 17 72 21 24 4 53 13 64 20 11 8
39 14 62 14 24 0 60 9 80 20 21 11 57 20 80 20 24 0 43 4 43 10 0 5 17 12 38
15 20 3 64 15 98 26 33 10 75 19 92 19 20 0 32 5 32 14 0 9 18 16 52 20 29 4
58 11 64 17 19 15 104 24 104 10 0 -7 5 -9 10 -6 6 3 10 1 10 -5 0 -6 5 -8 10
-5 6 3 10 1 10 -4 0 -6 5 -11 10 -11 6 0 10 9 10 20 0 18 -16 25 -42 21 -5 0
-8 6 -8 14 0 10 10 15 33 15 17 0 46 9 62 20 17 11 39 20 50 20 11 0 30 7 42
15 11 8 39 17 62 21 22 4 46 13 52 20 7 8 30 14 56 14 24 0 56 6 71 14 15 8
44 17 65 21 20 4 37 11 37 15 0 4 28 15 63 23 129 32 150 38 178 52 15 8 36
15 46 15 10 0 30 7 46 15 15 8 53 19 85 25 31 5 59 15 60 20 2 6 24 10 48 10
25 0 60 9 81 20 21 11 50 20 66 20 15 0 30 7 33 15 4 10 20 15 51 15 31 0 50
5 58 16 7 11 32 18 66 21 30 3 59 11 64 17 6 7 33 17 60 23 50 11 135 38 167
54 10 5 25 9 34 9 9 0 31 9 48 19 17 11 47 19 65 19 20 -1 39 5 45 14 6 8 30
18 53 21 23 4 54 14 70 22 15 8 45 17 66 20 20 3 37 10 37 15 0 4 19 11 43 15
23 3 56 12 72 20 17 7 64 23 105 34 41 12 89 27 105 32 17 6 48 14 70 18 22 4
49 12 60 18 11 6 37 13 58 16 21 3 46 12 56 21 11 10 36 16 68 16 34 0 53 5
56 14 3 7 28 16 57 19 29 4 60 13 69 21 22 20 65 24 69 7 2 -7 0 -16 -6 -20z
m-6812 -307 c0 -8 4 -14 9 -14 5 0 19 -16 31 -35 12 -19 28 -35 36 -35 8 0 19
-10 23 -22 7 -19 4 -27 -17 -44 l-26 -21 -17 31 c-10 17 -23 43 -29 59 -7 15
-16 27 -21 27 -5 0 -9 18 -9 41 0 24 4 38 10 34 6 -3 10 -13 10 -21z m205
-225 c-7 -22 -25 -25 -25 -4 0 8 -8 19 -19 24 -25 14 -35 42 -19 52 19 12 70
-48 63 -72z m-105 -10 c0 -5 -7 -9 -15 -9 -15 0 -20 12 -9 23 8 8 24 -1 24
-14z m187 -34 c21 -19 45 -35 53 -35 8 0 28 -14 44 -30 16 -17 35 -30 41 -30
7 0 20 -9 30 -20 10 -11 24 -20 32 -20 7 0 16 -7 19 -15 4 -8 12 -15 20 -15 8
0 22 -9 31 -20 10 -11 23 -20 30 -20 6 0 16 -6 20 -13 4 -7 19 -18 33 -25 62
-32 80 -44 80 -53 0 -5 9 -9 20 -9 10 0 24 -9 30 -20 6 -11 18 -20 26 -20 9 0
33 -13 53 -29 21 -16 50 -33 67 -37 16 -4 37 -15 47 -25 10 -11 26 -19 36 -19
10 0 26 -9 36 -20 10 -11 22 -20 27 -20 4 0 27 -13 50 -30 22 -16 49 -30 58
-30 9 0 27 -9 40 -20 12 -11 31 -22 41 -25 11 -4 19 -11 19 -16 0 -5 7 -9 15
-9 8 0 33 -17 56 -39 28 -26 48 -37 61 -33 11 2 32 -5 48 -17 16 -11 36 -21
45 -21 18 0 20 -26 3 -33 -7 -2 -10 -8 -5 -12 4 -5 18 -3 31 4 26 15 57 12 63
-5 2 -7 -7 -14 -20 -18 -23 -5 -46 -50 -33 -63 12 -12 54 9 64 32 14 30 48 33
55 5 3 -14 14 -20 31 -20 16 0 26 -6 26 -15 0 -10 10 -15 28 -15 15 0 35 -9
45 -20 9 -11 26 -20 36 -20 11 0 23 -5 26 -10 4 -6 21 -17 38 -25 41 -19 128
-68 158 -89 13 -9 31 -16 40 -16 9 0 23 -7 30 -17 8 -9 37 -27 64 -40 28 -13
75 -37 105 -53 30 -16 60 -30 66 -30 7 0 14 -7 18 -15 3 -8 15 -15 27 -15 12
0 23 -8 26 -20 3 -13 14 -20 29 -20 13 0 33 -9 44 -20 11 -11 27 -20 35 -20 8
0 15 -6 15 -14 0 -9 12 -16 32 -18 22 -2 34 -9 36 -20 2 -13 -1 -16 -12 -12
-9 3 -16 2 -16 -4 0 -14 34 -25 38 -13 6 17 62 13 62 -4 0 -10 -10 -15 -32
-15 l-32 0 23 -21 c20 -19 24 -20 46 -5 31 20 65 21 65 1 0 -9 9 -15 25 -15
16 0 25 -6 25 -15 0 -9 -6 -15 -14 -13 -19 4 -21 -2 -12 -29 8 -24 49 -32 61
-13 13 20 95 4 95 -19 0 -4 -14 -8 -30 -8 -35 0 -48 -9 -33 -24 8 -8 21 -6 46
6 33 16 37 15 79 -4 25 -11 50 -27 57 -35 7 -8 26 -18 44 -22 17 -3 37 -13 45
-20 7 -8 22 -14 32 -14 11 0 23 -6 27 -13 4 -8 34 -26 66 -41 31 -16 57 -32
57 -37 0 -5 6 -9 14 -9 17 0 120 -52 124 -62 2 -5 12 -8 23 -8 10 0 24 -9 31
-20 8 -12 24 -20 40 -20 21 0 28 -5 28 -20 0 -15 7 -20 29 -20 16 0 31 -6 35
-15 3 -8 14 -15 24 -15 11 0 25 -7 32 -15 7 -8 18 -15 24 -15 7 0 17 -5 24
-12 9 -9 8 -15 -3 -28 -8 -9 -11 -21 -6 -29 7 -10 10 -8 16 9 6 18 12 20 33
15 15 -4 29 -11 30 -16 2 -5 7 -7 12 -4 4 2 15 -4 25 -15 10 -11 22 -20 27
-20 12 0 121 -51 128 -60 3 -3 32 -19 65 -35 33 -17 64 -35 68 -42 4 -7 16
-13 26 -13 10 0 28 -11 40 -24 l22 -23 -40 -6 c-22 -3 -48 -12 -56 -21 -9 -9
-30 -16 -46 -16 -17 0 -28 -5 -26 -12 1 -7 -17 -16 -43 -22 -25 -5 -51 -16
-58 -23 -7 -7 -26 -13 -41 -13 -16 0 -34 -6 -40 -14 -7 -8 -26 -18 -44 -22
-17 -3 -37 -13 -45 -20 -7 -8 -28 -14 -47 -14 -19 0 -35 -6 -38 -14 -3 -7 -27
-17 -54 -20 -53 -8 -131 -30 -180 -52 -17 -8 -53 -14 -81 -14 -34 0 -57 -6
-75 -20 -19 -15 -40 -20 -90 -20 -50 0 -66 -4 -71 -16 -5 -13 -16 -15 -60 -10
-34 5 -56 3 -61 -3 -3 -6 -19 -11 -34 -11 -15 0 -33 -6 -39 -12 -7 -7 -51 -16
-99 -19 -47 -4 -88 -11 -92 -17 -9 -14 -371 -35 -611 -36 -251 0 -532 18 -602
39 -28 8 -80 15 -115 15 -38 0 -73 6 -86 14 -12 8 -56 17 -97 21 -41 4 -78 12
-81 17 -3 5 -31 13 -61 17 -31 4 -68 15 -82 24 -15 10 -45 17 -74 17 -31 0
-54 5 -61 14 -7 8 -30 18 -53 21 -38 7 -78 31 -78 47 0 5 23 8 51 8 50 0 50 0
47 29 -1 18 5 37 15 49 18 20 18 20 -17 33 -29 10 -36 18 -36 39 0 14 -5 31
-12 38 -7 7 -8 12 -3 12 6 1 -4 7 -21 14 -26 11 -32 21 -38 56 -4 24 -10 40
-13 36 -13 -12 -9 -130 5 -144 10 -11 12 -11 12 3 0 9 5 13 11 10 5 -4 9 -21
7 -37 -2 -21 2 -32 12 -35 13 -4 13 -3 0 6 -13 9 -13 11 2 11 18 0 50 -57 41
-73 -2 -4 -17 -7 -33 -7 -15 0 -30 -7 -34 -15 -11 -30 -26 -14 -26 30 0 24 -6
59 -14 77 -18 41 -56 163 -56 180 0 7 -7 25 -14 40 -8 16 -18 49 -22 75 -3 27
-12 62 -19 78 -7 17 -16 47 -20 69 -3 21 -10 46 -15 55 -18 37 -50 159 -50
193 0 20 -4 40 -10 43 -5 3 -10 21 -10 39 0 18 -11 55 -25 82 -24 48 -34 124
-16 124 5 0 13 9 16 20 4 11 11 18 16 15 5 -4 9 1 9 9 0 8 6 19 14 23 19 11
26 73 9 80 -7 3 -13 20 -13 39 0 33 -13 43 -35 26 -14 -10 -17 -52 -4 -52 6 0
8 -8 5 -17 -3 -10 -7 -34 -8 -53 -2 -32 -21 -59 -41 -60 -5 0 -8 19 -7 43 3
62 1 67 -15 67 -11 0 -15 12 -15 45 0 33 -5 50 -20 62 -11 10 -20 28 -20 40 0
13 -9 40 -20 60 -11 21 -20 54 -20 73 0 20 -7 45 -15 56 -8 10 -15 38 -15 62
0 28 -5 45 -15 48 -10 4 -15 20 -15 47 0 22 -9 59 -19 81 -10 23 -21 52 -25
66 -21 96 -39 159 -52 183 -8 16 -14 48 -14 72 0 29 -5 45 -15 49 -11 4 -15
21 -15 65 0 40 -4 63 -14 68 -20 12 -31 72 -14 77 49 15 51 17 40 28 -19 19
-14 28 13 28 18 0 25 -5 25 -20 0 -11 5 -20 10 -20 21 0 10 -41 -14 -49 -30
-12 -38 -42 -17 -68 29 -36 48 -35 56 3 3 19 4 38 1 43 -3 5 3 11 14 14 24 6
27 49 5 67 -20 17 -19 48 3 53 9 3 18 5 19 6 1 0 19 -15 40 -34z m-477 -256
c0 -11 -4 -17 -10 -14 -5 3 -10 13 -10 21 0 8 5 14 10 14 6 0 10 -9 10 -21z
m3190 -934 c0 -8 -7 -15 -15 -15 -16 0 -20 12 -8 23 11 12 23 8 23 -8z m-162
-300 c-2 -1 -16 -5 -33 -9 -28 -7 -29 -6 -10 7 10 8 25 12 33 10 7 -3 12 -7
10 -8z"/>
<path d="M7228 10992 c-13 -16 -29 -27 -36 -24 -7 2 -12 -1 -12 -7 0 -16 26
-13 44 4 9 9 17 11 21 5 11 -18 21 -11 20 15 -2 37 -10 39 -37 7z"/>
<path d="M7050 11000 c-12 -8 -12 -10 2 -15 26 -10 101 -1 106 13 5 15 -85 17
-108 2z"/>
<path d="M7320 10919 c0 -5 5 -7 10 -4 6 3 10 8 10 11 0 2 -4 4 -10 4 -5 0
-10 -5 -10 -11z"/>
<path d="M4225 10850 c3 -5 10 -10 16 -10 5 0 9 5 9 10 0 6 -7 10 -16 10 -8 0
-12 -4 -9 -10z"/>
<path d="M4180 10820 c0 -5 5 -10 10 -10 6 0 10 5 10 10 0 6 -4 10 -10 10 -5
0 -10 -4 -10 -10z"/>
<path d="M4390 10791 c0 -6 5 -13 10 -16 6 -3 10 1 10 9 0 9 -4 16 -10 16 -5
0 -10 -4 -10 -9z"/>
<path d="M4835 10430 c3 -5 11 -10 16 -10 6 0 7 5 4 10 -3 6 -11 10 -16 10 -6
0 -7 -4 -4 -10z"/>
<path d="M5063 10304 c-10 -26 10 -35 46 -23 l34 12 -24 13 c-32 18 -48 17
-56 -2z"/>
<path d="M7490 10286 c0 -8 -3 -22 -7 -32 -5 -13 -3 -16 10 -11 12 4 17 -2 23
-26 4 -20 2 -33 -5 -35 -20 -7 -11 -22 13 -22 21 0 24 5 28 44 2 35 -2 50 -19
70 -24 29 -43 34 -43 12z"/>
<path d="M5387 10255 c-5 -10 0 -15 14 -15 12 0 19 5 17 12 -6 18 -25 20 -31
3z"/>
<path d="M5264 10224 c-15 -8 -29 -12 -32 -9 -8 7 -32 -15 -32 -30 0 -7 7 -16
16 -19 20 -8 54 11 54 29 0 10 10 15 30 15 17 0 30 4 30 9 0 16 -38 19 -66 5z"/>
<path d="M5356 10191 c-4 -5 -2 -12 3 -15 5 -4 12 -2 15 3 4 5 2 12 -3 15 -5
4 -12 2 -15 -3z"/>
<path d="M5395 10151 c-3 -6 -1 -11 4 -11 6 0 10 -5 9 -12 -2 -6 5 -14 15 -16
23 -5 22 11 -2 32 -12 11 -21 14 -26 7z"/>
<path d="M7491 10126 c-8 -10 -9 -16 -1 -21 13 -8 30 3 30 21 0 18 -14 18 -29
0z"/>
<path d="M5718 10003 c6 -2 18 -2 25 0 6 3 1 5 -13 5 -14 0 -19 -2 -12 -5z"/>
<path d="M7725 9601 c-8 -27 11 -54 21 -28 3 9 1 24 -4 33 -9 16 -10 15 -17
-5z"/>
<path d="M6377 9562 c-26 -5 -10 -22 22 -22 15 0 33 -6 40 -12 10 -11 12 -9 9
6 -3 20 -40 35 -71 28z"/>
<path d="M6866 9491 c-4 -7 -5 -15 -2 -18 9 -9 19 4 14 18 -4 11 -6 11 -12 0z"/>
<path d="M6765 9450 c-3 -5 -3 -10 2 -10 4 0 18 -3 31 -6 16 -5 22 -2 22 10 0
18 -45 23 -55 6z"/>
<path d="M6954 9449 c-3 -6 -2 -14 2 -19 12 -11 57 7 49 20 -8 13 -42 13 -51
-1z"/>
<path d="M6660 9410 c0 -5 6 -10 14 -10 8 0 18 5 21 10 3 6 -3 10 -14 10 -12
0 -21 -4 -21 -10z"/>
<path d="M6878 9403 c-23 -6 -23 -42 -2 -50 18 -7 44 20 44 44 0 13 -10 15
-42 6z"/>
<path d="M6720 9376 c0 -15 50 -56 69 -56 6 0 11 -6 11 -14 0 -7 10 -16 23
-20 36 -9 38 -7 21 19 -9 14 -22 25 -29 25 -7 0 -18 14 -24 30 -8 24 -16 30
-40 30 -20 0 -31 -5 -31 -14z"/>
<path d="M6965 9310 c-3 -5 1 -10 9 -10 8 0 18 5 21 10 3 6 -1 10 -9 10 -8 0
-18 -4 -21 -10z"/>
<path d="M7070 9210 c0 -16 7 -20 30 -20 34 0 39 14 11 30 -29 15 -41 12 -41
-10z"/>
<path d="M7150 9090 c0 -5 6 -10 14 -10 8 0 18 5 21 10 3 6 -3 10 -14 10 -12
0 -21 -4 -21 -10z"/>
<path d="M7768 8803 c7 -3 16 -2 19 1 4 3 -2 6 -13 5 -11 0 -14 -3 -6 -6z"/>
<path d="M7770 8700 c0 -5 5 -10 10 -10 6 0 10 5 10 10 0 6 -4 10 -10 10 -5 0
-10 -4 -10 -10z"/>
<path d="M7870 8700 c0 -5 5 -10 11 -10 5 0 7 5 4 10 -3 6 -8 10 -11 10 -2 0
-4 -4 -4 -10z"/>
<path d="M8170 8350 c0 -11 7 -20 15 -20 8 0 15 9 15 20 0 11 -7 20 -15 20 -8
0 -15 -9 -15 -20z"/>
<path d="M8115 10710 c3 -5 10 -10 16 -10 5 0 9 5 9 10 0 6 -7 10 -16 10 -8 0
-12 -4 -9 -10z"/>
<path d="M8192 10634 c9 -9 21 -13 27 -10 20 13 11 26 -16 26 -25 0 -26 -1
-11 -16z"/>
<path d="M8320 10500 c0 -5 14 -17 31 -26 21 -10 29 -11 23 -3 -5 9 -2 10 11
5 18 -7 18 -6 0 14 -18 20 -65 28 -65 10z"/>
<path d="M8000 10478 c0 -13 -1 -34 -1 -48 -1 -46 14 -121 22 -113 12 12 20
115 11 147 -10 37 -32 46 -32 14z"/>
<path d="M8413 10465 c-17 -18 -6 -45 18 -45 12 0 19 7 19 20 0 11 -5 20 -11
20 -5 0 -7 5 -4 10 9 15 -8 11 -22 -5z"/>
<path d="M8275 10440 c-3 -5 1 -10 9 -10 9 0 16 5 16 10 0 6 -4 10 -9 10 -6 0
-13 -4 -16 -10z"/>
<path d="M8460 10360 c0 -5 9 -10 20 -10 11 0 20 5 20 10 0 6 -9 10 -20 10
-11 0 -20 -4 -20 -10z"/>
<path d="M8703 10323 c-18 -7 -16 -23 2 -23 8 0 15 7 15 15 0 8 -1 15 -2 14
-2 0 -9 -3 -15 -6z"/>
<path d="M8037 10314 c-16 -16 6 -114 25 -114 4 0 8 -20 8 -45 0 -45 13 -58
36 -35 13 13 6 -49 -7 -66 -11 -14 -1 -44 15 -44 19 0 56 30 56 46 0 8 -4 13
-9 9 -5 -3 -12 -1 -16 5 -3 5 -2 10 4 10 35 0 39 192 4 218 -24 17 -36 11 -47
-26 -12 -43 -24 -40 -28 5 -3 36 -23 54 -41 37z m96 -125 c-8 -8 -14 -6 -22 9
-13 25 -2 37 18 17 11 -11 12 -18 4 -26z"/>
<path d="M8620 10280 c-23 -7 -23 -8 -3 -9 12 -1 25 4 28 9 3 6 5 10 3 9 -2
-1 -14 -5 -28 -9z"/>
<path d="M8213 10103 c-7 -2 -13 -18 -13 -34 0 -17 -6 -32 -15 -35 -8 -4 -15
-12 -15 -20 0 -8 -7 -14 -15 -14 -25 0 -20 -77 6 -91 26 -13 35 -2 45 51 4 19
12 42 19 50 19 24 26 50 19 76 -6 24 -9 26 -31 17z"/>
<path d="M8244 9940 c0 -23 2 -36 4 -30 2 5 10 10 17 10 14 0 24 28 18 48 -3
6 -13 12 -23 12 -14 0 -17 -8 -16 -40z"/>
<path d="M8185 9880 c-4 -6 -3 -16 3 -22 6 -6 12 -6 17 2 4 6 3 16 -3 22 -6 6
-12 6 -17 -2z"/>
<path d="M8221 9874 c0 -11 3 -14 6 -6 3 7 2 16 -1 19 -3 4 -6 -2 -5 -13z"/>
<path d="M8244 9867 c-9 -25 0 -62 16 -62 10 0 15 10 15 34 0 36 -21 54 -31
28z"/>
<path d="M9447 9663 c-12 -12 -7 -22 8 -17 8 4 15 10 15 15 0 11 -14 12 -23 2z"/>
<path d="M9550 9649 c0 -6 11 -24 25 -41 14 -16 25 -36 25 -45 0 -8 6 -13 13
-10 6 2 12 9 11 15 -1 7 -2 23 -2 37 -1 14 -8 25 -16 25 -7 0 -19 7 -26 15
-15 18 -30 20 -30 4z"/>
<path d="M9486 9601 c-14 -23 3 -57 36 -72 18 -8 34 -20 34 -26 1 -7 2 -20 3
-28 0 -8 8 -15 16 -15 11 0 15 9 13 30 -2 21 -7 30 -20 30 -10 0 -18 6 -18 13
0 7 -13 28 -28 47 -20 24 -31 30 -36 21z"/>
<path d="M9432 9530 c0 -14 2 -19 5 -12 2 6 2 18 0 25 -3 6 -5 1 -5 -13z"/>
<path d="M9460 9476 c0 -9 5 -16 10 -16 6 0 10 4 10 9 0 6 -4 13 -10 16 -5 3
-10 -1 -10 -9z"/>
<path d="M9645 9481 c-3 -5 4 -16 16 -24 15 -11 17 -16 7 -21 -7 -3 -4 -5 7
-3 11 1 21 11 23 21 3 11 0 16 -7 12 -6 -4 -14 0 -17 8 -7 18 -20 21 -29 7z"/>
<path d="M9710 9475 c0 -8 9 -15 20 -15 11 0 20 7 20 15 0 8 -9 15 -20 15 -11
0 -20 -7 -20 -15z"/>
<path d="M9730 9406 c0 -9 7 -19 15 -22 8 -4 15 -12 15 -19 0 -7 10 -15 21
-18 19 -5 21 -3 15 25 -7 38 -5 35 -39 43 -21 6 -27 4 -27 -9z"/>
<path d="M9700 9354 c0 -8 5 -12 10 -9 6 3 10 10 10 16 0 5 -4 9 -10 9 -5 0
-10 -7 -10 -16z"/>
<path d="M9809 9329 c-16 -31 3 -46 30 -23 11 10 21 24 21 31 0 21 -38 15 -51
-8z"/>
<path d="M9727 9303 c-7 -12 11 -53 23 -53 15 0 12 36 -4 49 -8 7 -16 8 -19 4z"/>
<path d="M9853 9258 c-39 -23 -43 -48 -9 -48 26 0 64 46 49 60 -4 4 -23 -2
-40 -12z"/>
<path d="M9702 9205 c0 -16 2 -22 5 -12 2 9 2 23 0 30 -3 6 -5 -1 -5 -18z"/>
<path d="M9935 9220 c-3 -5 1 -10 10 -10 9 0 13 5 10 10 -3 6 -8 10 -10 10 -2
0 -7 -4 -10 -10z"/>
<path d="M9930 9170 c0 -10 5 -22 10 -25 6 -3 10 -4 10 -1 0 2 3 11 6 19 3 8
-2 17 -10 20 -11 5 -16 0 -16 -13z"/>
<path d="M9970 9095 c0 -9 6 -12 15 -9 8 4 15 10 15 15 0 5 -7 9 -15 9 -8 0
-15 -7 -15 -15z"/>
<path d="M9996 9005 c-8 -21 1 -35 20 -35 10 0 14 8 12 22 -4 27 -23 34 -32
13z"/>
<path d="M10080 8986 c0 -9 0 -19 -1 -23 0 -4 5 -9 12 -12 6 -2 9 1 5 7 -3 6
-1 12 5 14 7 2 5 9 -5 17 -14 11 -16 11 -16 -3z"/>
<path d="M8526 8953 c-3 -3 -6 -26 -6 -50 0 -38 -2 -43 -23 -43 -21 0 -24 -5
-23 -32 1 -26 6 -34 24 -36 19 -3 22 1 22 28 0 24 6 33 27 41 20 7 23 13 15
21 -7 7 -12 24 -12 39 0 28 -12 44 -24 32z"/>
<path d="M10040 8910 c0 -11 4 -20 9 -20 11 0 22 26 14 34 -12 12 -23 5 -23
-14z"/>
<path d="M8423 8884 c-9 -25 13 -40 26 -16 10 19 6 32 -11 32 -5 0 -11 -7 -15
-16z"/>
<path d="M10082 8280 c0 -14 2 -19 5 -12 2 6 2 18 0 25 -3 6 -5 1 -5 -13z"/>
<path d="M9940 8100 c0 -5 6 -10 14 -10 8 0 18 5 21 10 3 6 -3 10 -14 10 -12
0 -21 -4 -21 -10z"/>
<path d="M9830 8025 c0 -8 9 -15 20 -15 11 0 20 7 20 15 0 8 -9 15 -20 15 -11
0 -20 -7 -20 -15z"/>
<path d="M9915 7959 c-9 -28 -2 -33 13 -9 6 11 8 21 3 25 -5 3 -13 -4 -16 -16z"/>
<path d="M9800 7870 c0 -75 -13 -130 -32 -130 -4 0 -8 -11 -8 -25 0 -14 -4
-25 -9 -25 -22 0 -41 13 -41 28 0 11 -3 13 -11 5 -8 -8 -8 -16 0 -29 6 -11 16
-32 21 -47 13 -36 34 -30 38 11 2 18 9 32 15 32 16 0 47 56 47 85 0 12 7 26
15 29 12 4 13 11 7 23 -6 10 -13 42 -17 71 -10 78 -25 63 -25 -28z"/>
<path d="M9900 7901 c0 -11 5 -23 10 -26 6 -4 10 5 10 19 0 14 -4 26 -10 26
-5 0 -10 -9 -10 -19z"/>
<path d="M9730 7795 c0 -19 4 -35 9 -35 11 0 21 38 14 56 -10 26 -23 14 -23
-21z"/>
<path d="M9658 7629 c-19 -11 -14 -35 13 -61 15 -15 18 -16 23 -1 4 8 2 21 -3
27 -5 6 -10 19 -12 28 -3 13 -8 14 -21 7z"/>
<path d="M9620 7518 c0 -16 -3 -19 -9 -10 -6 10 -10 10 -21 -3 -7 -8 -19 -15
-27 -15 -17 0 -32 -37 -25 -63 4 -14 12 -18 34 -15 23 4 30 0 34 -19 4 -13 3
-34 0 -48 -4 -14 -3 -25 1 -25 20 1 41 28 47 63 4 20 11 37 16 37 4 0 11 18
15 41 4 22 16 49 28 60 11 10 16 19 9 19 -6 0 -18 -10 -26 -22 -9 -12 -16 -17
-16 -10 0 6 -6 12 -14 12 -19 0 -33 -23 -18 -28 15 -5 16 -44 1 -59 -6 -6 -18
-9 -25 -6 -19 7 -18 57 1 73 17 14 20 40 5 40 -5 0 -10 -10 -10 -22z"/>
<path d="M8876 7482 c-11 -10 -6 -22 7 -19 6 1 11 -3 10 -9 -1 -6 5 -11 13
-11 21 0 17 34 -5 40 -11 3 -22 2 -25 -1z"/>
<path d="M9427 7423 c-12 -12 -7 -41 8 -47 10 -3 15 1 15 12 0 22 -14 44 -23
35z"/>
<path d="M9490 7401 c0 -11 -5 -21 -10 -23 -12 -4 7 -68 20 -68 43 0 54 51 20
88 -25 27 -30 27 -30 3z"/>
<path d="M8851 7374 c0 -11 3 -14 6 -6 3 7 2 16 -1 19 -3 4 -6 -2 -5 -13z"/>
<path d="M8871 7383 c-1 -7 6 -16 15 -21 11 -6 13 -11 5 -16 -6 -4 -11 -13
-11 -19 1 -13 30 22 30 35 0 4 -6 8 -14 8 -8 0 -17 6 -19 13 -4 9 -6 9 -6 0z"/>
<path d="M9080 7296 c0 -9 5 -16 10 -16 6 0 10 4 10 9 0 6 -4 13 -10 16 -5 3
-10 -1 -10 -9z"/>
<path d="M9407 7269 c-21 -12 -13 -29 14 -29 12 0 19 -7 19 -20 0 -11 5 -20
11 -20 8 0 7 -6 -2 -17 -12 -15 -12 -16 1 -8 12 7 13 6 3 -6 -17 -22 -5 -63
24 -76 14 -7 23 -10 19 -6 -3 3 -1 12 6 20 6 7 8 16 5 20 -4 3 -2 12 5 20 6 8
7 13 2 12 -5 -1 -17 1 -26 5 -14 7 -17 16 -12 47 4 25 3 39 -4 39 -6 0 -13 8
-15 18 -4 15 -5 14 -6 -2 -1 -18 -2 -18 -13 -3 -10 12 -17 14 -31 6z"/>
<path d="M9400 7181 c0 -6 5 -13 10 -16 6 -3 10 1 10 9 0 9 -4 16 -10 16 -5 0
-10 -4 -10 -9z"/>
<path d="M9380 7126 c0 -7 -12 -26 -27 -42 -15 -16 -33 -40 -40 -54 -9 -18
-13 -20 -13 -7 0 38 -18 14 -22 -30 -4 -38 0 -52 14 -67 12 -11 17 -24 12 -35
-4 -9 -12 -31 -18 -48 -6 -18 -16 -33 -23 -33 -18 0 -24 -16 -17 -45 l7 -27
15 34 c9 18 29 46 46 62 16 16 30 39 31 51 0 12 14 35 30 51 17 17 31 37 33
45 2 8 12 22 23 32 19 18 24 77 7 77 -13 0 -47 38 -40 44 3 3 0 6 -6 6 -7 0
-12 -6 -12 -14z m28 -94 c4 -38 -10 -41 -31 -8 -12 17 -13 26 -4 35 18 18 32
7 35 -27z"/>
<path d="M9220 6959 c0 -11 5 -17 10 -14 6 3 10 13 10 21 0 8 -4 14 -10 14 -5
0 -10 -9 -10 -21z"/>
<path d="M9235 6927 c-6 -7 -16 -25 -23 -41 -11 -25 -11 -32 2 -44 13 -13 16
-12 22 12 3 14 15 33 27 41 17 12 18 17 7 30 -15 18 -22 18 -35 2z"/>
<path d="M9146 6755 c4 -8 10 -12 15 -9 11 6 2 24 -11 24 -5 0 -7 -7 -4 -15z"/>
<path d="M3625 10511 c-8 -15 3 -31 21 -31 9 0 14 7 12 17 -4 20 -24 28 -33
14z"/>
<path d="M3850 10465 c0 -8 7 -15 15 -15 8 0 19 -9 25 -20 6 -11 17 -20 26
-20 8 0 17 -6 20 -14 3 -8 13 -12 24 -9 17 5 15 8 -13 34 -17 16 -37 29 -43
29 -7 0 -14 7 -18 15 -3 8 -12 15 -21 15 -8 0 -15 -7 -15 -15z"/>
<path d="M3567 10440 c3 -11 7 -20 8 -20 1 0 5 9 8 20 3 12 0 20 -8 20 -8 0
-11 -8 -8 -20z"/>
<path d="M3758 10417 c-16 -13 -28 -26 -28 -29 0 -8 98 -3 107 5 3 4 0 7 -7 7
-7 0 -10 3 -7 7 9 8 -12 33 -27 33 -6 -1 -23 -11 -38 -23z"/>
<path d="M3628 10393 c7 -3 16 -2 19 1 4 3 -2 6 -13 5 -11 0 -14 -3 -6 -6z"/>
<path d="M3874 10361 c8 -12 46 -21 46 -11 0 8 -24 20 -41 20 -6 0 -8 -4 -5
-9z"/>
<path d="M3435 10350 c3 -5 12 -7 20 -3 21 7 19 13 -6 13 -11 0 -18 -4 -14
-10z"/>
<path d="M3145 10220 c-3 -5 3 -10 15 -10 12 0 18 5 15 10 -3 6 -10 10 -15 10
-5 0 -12 -4 -15 -10z"/>
<path d="M4333 10133 c-27 -10 -7 -44 25 -43 18 1 32 18 26 33 -6 17 -26 21
-51 10z"/>
<path d="M4490 10110 c-12 -8 -10 -10 11 -10 14 0 30 -5 36 -11 9 -9 11 -7 9
7 -3 21 -33 29 -56 14z"/>
<path d="M4425 10080 c-3 -5 -4 -10 -1 -10 2 0 11 -3 20 -6 11 -4 16 -1 16 10
0 18 -25 22 -35 6z"/>
<path d="M4682 9961 c-11 -6 -10 -11 3 -25 19 -19 42 -21 47 -4 5 13 -15 38
-29 38 -4 0 -14 -4 -21 -9z"/>
<path d="M4782 9948 c-21 -21 -2 -36 40 -31 35 5 40 4 36 -13 -2 -12 -13 -20
-31 -22 -35 -4 -35 -19 2 -27 16 -3 31 -14 34 -25 4 -15 16 -20 58 -22 37 -2
53 -7 52 -15 -3 -15 25 -17 45 -4 18 11 -9 34 -31 25 -8 -3 -18 0 -23 7 -4 8
-3 10 4 5 7 -4 12 -3 12 2 0 11 -34 22 -72 22 -34 0 -39 27 -6 32 36 5 32 27
-9 45 -57 24 -100 32 -111 21z"/>
<path d="M4756 9913 c-11 -11 -6 -23 9 -23 8 0 15 4 15 9 0 13 -16 22 -24 14z"/>
<path d="M4685 9870 c-3 -5 -4 -10 -1 -10 2 0 11 -3 20 -6 11 -4 16 -1 16 10
0 18 -25 22 -35 6z"/>
<path d="M2595 9801 c-3 -5 -1 -12 5 -16 5 -3 10 1 10 9 0 18 -6 21 -15 7z"/>
<path d="M4820 9790 c19 -13 30 -13 30 0 0 6 -10 10 -22 10 -19 0 -20 -2 -8
-10z"/>
<path d="M2478 9649 c-16 -15 -28 -32 -28 -37 0 -12 -44 -52 -57 -52 -6 0 -13
-9 -16 -21 -3 -12 -10 -18 -16 -14 -7 4 -11 -5 -11 -25 0 -17 -5 -40 -11 -51
-13 -25 4 -49 34 -49 28 0 107 48 107 65 0 7 9 17 20 20 11 3 20 9 21 13 0 4
2 17 5 29 4 26 -5 34 -33 27 -15 -4 -19 -12 -15 -31 4 -20 1 -24 -14 -21 -26
5 -24 36 3 75 13 17 23 35 23 39 0 4 7 15 14 23 28 31 2 40 -26 10z"/>
<path d="M2544 9585 c25 -19 36 -19 36 0 0 10 -10 15 -27 15 -27 -1 -27 -1 -9
-15z"/>
<path d="M5583 9402 c-17 -2 -23 -10 -23 -28 0 -25 17 -30 52 -16 25 11 0 48
-29 44z"/>
<path d="M2268 9375 c-33 -8 -44 -16 -46 -33 -5 -30 30 -29 89 1 76 40 55 55
-43 32z"/>
<path d="M5789 9369 c-21 -12 37 -14 81 -2 l45 12 -58 -2 c-32 -1 -63 -4 -68
-8z"/>
<path d="M5928 9353 c-28 -7 -22 -33 7 -33 15 0 25 6 25 14 0 18 -10 24 -32
19z"/>
<path d="M2183 9293 c-3 -10 -8 -21 -9 -24 -2 -4 6 -18 17 -33 11 -14 18 -30
15 -35 -8 -13 11 -61 24 -61 5 0 13 12 16 27 6 21 2 31 -20 50 -24 20 -25 23
-8 23 11 0 25 7 32 16 11 13 10 16 -8 20 -11 4 -23 12 -26 20 -7 19 -25 18
-33 -3z"/>
<path d="M5522 9298 c3 -7 14 -17 26 -23 12 -5 22 -13 22 -18 0 -4 10 -3 21 4
15 8 19 8 15 0 -4 -7 1 -11 13 -11 12 0 21 7 21 15 0 9 -9 15 -22 15 -13 0
-36 7 -52 15 -35 18 -49 19 -44 3z"/>
<path d="M5875 9300 c-3 -5 -1 -10 4 -10 6 0 11 5 11 10 0 6 -2 10 -4 10 -3 0
-8 -4 -11 -10z"/>
<path d="M5480 9280 c20 -13 40 -13 40 0 0 6 -12 10 -27 10 -22 0 -25 -2 -13
-10z"/>
<path d="M5820 9275 c-10 -13 -9 -15 9 -15 11 0 21 4 21 9 0 18 -18 21 -30 6z"/>
<path d="M5927 9274 c-9 -10 2 -24 19 -24 8 0 14 7 14 15 0 15 -21 21 -33 9z"/>
<path d="M5055 9200 c-7 -12 27 -22 37 -12 6 6 1 12 -11 15 -12 3 -23 2 -26
-3z"/>
<path d="M2121 9170 c0 -33 1 -34 11 -12 8 17 8 26 0 34 -9 9 -12 4 -11 -22z"/>
<path d="M5025 9170 c3 -5 8 -10 11 -10 2 0 4 5 4 10 0 6 -5 10 -11 10 -5 0
-7 -4 -4 -10z"/>
<path d="M5149 9169 c-10 -6 -7 -9 14 -9 29 0 35 5 14 13 -8 3 -20 1 -28 -4z"/>
<path d="M2180 9090 c0 -5 5 -10 11 -10 5 0 7 5 4 10 -3 6 -8 10 -11 10 -2 0
-4 -4 -4 -10z"/>
<path d="M3907 8845 c-9 -9 -17 -19 -17 -21 0 -3 37 -2 83 2 45 4 88 7 95 7 8
0 9 4 3 10 -5 5 -41 12 -78 14 -56 4 -72 2 -86 -12z"/>
<path d="M3870 8800 c0 -5 4 -10 9 -10 6 0 13 5 16 10 3 6 -1 10 -9 10 -9 0
-16 -4 -16 -10z"/>
<path d="M3820 8770 c-22 -7 -21 -8 13 -9 23 -1 36 3 32 9 -7 11 -10 11 -45 0z"/>
<path d="M3723 8743 c-7 -3 -13 -9 -13 -14 0 -14 44 -11 66 5 18 14 17 15 -11
14 -16 -1 -36 -3 -42 -5z"/>
<path d="M3440 8726 c0 -9 -6 -16 -14 -16 -18 0 -33 -43 -17 -48 6 -2 9 -7 7
-11 -3 -4 4 -13 16 -20 11 -7 17 -8 14 -2 -4 5 7 11 26 13 28 3 33 7 34 31 1
15 -3 30 -9 34 -5 3 -3 9 4 14 10 6 8 9 -8 9 -12 0 -28 3 -37 6 -11 4 -16 1
-16 -10z m45 -34 c-3 -3 -11 0 -18 7 -9 10 -8 11 6 5 10 -3 15 -9 12 -12z"/>
<path d="M3607 8713 c-21 -20 -4 -31 43 -29 53 2 66 8 55 25 -7 12 -87 15 -98
4z"/>
<path d="M3298 8633 c6 -2 18 -2 25 0 6 3 1 5 -13 5 -14 0 -19 -2 -12 -5z"/>
<path d="M3056 8601 c-9 -14 23 -22 61 -15 25 5 31 9 21 15 -17 11 -75 11 -82
0z"/>
<path d="M3100 8530 c-32 -7 -31 -7 18 -9 33 -1 51 3 47 9 -7 11 -13 11 -65 0z"/>
<path d="M1700 8455 c0 -14 6 -25 13 -25 14 0 44 18 37 22 -44 28 -50 28 -50
3z"/>
<path d="M1988 8313 c6 -2 18 -2 25 0 6 3 1 5 -13 5 -14 0 -19 -2 -12 -5z"/>
<path d="M1935 8210 c-3 -5 1 -10 9 -10 9 0 16 5 16 10 0 6 -4 10 -9 10 -6 0
-13 -4 -16 -10z"/>
<path d="M1670 8100 c0 -19 3 -21 12 -12 9 9 9 15 0 24 -9 9 -12 7 -12 -12z"/>
<path d="M5840 7261 c-96 -49 -232 -116 -302 -149 -71 -34 -128 -66 -128 -72
0 -15 164 -175 199 -195 88 -49 196 -95 261 -111 187 -44 429 -2 588 103 77
50 202 175 202 201 0 21 -40 43 -395 212 -71 34 -146 70 -166 81 -20 10 -47
19 -60 18 -13 0 -103 -40 -199 -88z"/>
<path d="M3905 8350 c-3 -5 -1 -10 4 -10 6 0 11 5 11 10 0 6 -2 10 -4 10 -3 0
-8 -4 -11 -10z"/>
<path d="M3857 8323 c-13 -12 -7 -23 13 -23 11 0 20 7 20 15 0 15 -21 21 -33
8z"/>
<path d="M3403 8133 c9 -2 23 -2 30 0 6 3 -1 5 -18 5 -16 0 -22 -2 -12 -5z"/>
<path d="M2435 7850 c-3 -5 1 -10 9 -10 9 0 16 5 16 10 0 6 -4 10 -9 10 -6 0
-13 -4 -16 -10z"/>
<path d="M2267 7826 c-4 -10 -1 -13 9 -9 7 3 14 9 14 14 0 14 -17 10 -23 -5z"/>
<path d="M2190 7780 c8 -5 20 -10 25 -10 6 0 3 5 -5 10 -8 5 -19 10 -25 10 -5
0 -3 -5 5 -10z"/>
<path d="M2168 7753 c7 -3 16 -2 19 1 4 3 -2 6 -13 5 -11 0 -14 -3 -6 -6z"/>
<path d="M1940 7721 c-12 -24 -1 -29 53 -21 46 6 59 24 25 34 -41 11 -67 6
-78 -13z"/>
<path d="M1852 7690 c-87 -7 -83 -24 6 -28 39 -2 72 1 72 5 -1 22 -20 28 -78
23z"/>
<path d="M1943 7631 c-4 -16 -12 -20 -35 -17 -40 5 -68 -3 -68 -20 0 -8 -7
-14 -15 -14 -8 0 -15 -4 -15 -10 0 -11 19 -12 73 -4 20 4 37 12 37 19 0 6 15
18 33 26 34 15 39 32 12 37 -10 2 -19 -5 -22 -17z"/>
<path d="M1565 7570 c3 -5 15 -10 26 -10 10 0 19 5 19 10 0 6 -12 10 -26 10
-14 0 -23 -4 -19 -10z"/>
<path d="M3098 7460 c-4 -23 -1 -30 13 -30 17 0 29 19 29 46 0 8 -8 14 -19 14
-13 0 -20 -9 -23 -30z"/>
<path d="M3147 7423 c-4 -3 -7 -19 -7 -34 0 -17 -8 -34 -21 -43 -22 -15 -22
-53 -1 -49 6 2 15 -12 20 -30 4 -17 12 -32 18 -32 15 0 17 57 2 66 -10 7 -11
12 0 29 6 11 12 38 12 60 0 38 -8 49 -23 33z"/>
<path d="M3050 7381 c-15 -16 -16 -81 -1 -81 7 0 25 90 19 95 -2 1 -10 -5 -18
-14z"/>
<path d="M3075 7270 c3 -5 8 -10 11 -10 2 0 4 5 4 10 0 6 -5 10 -11 10 -5 0
-7 -4 -4 -10z"/>
<path d="M3052 7243 c-7 -2 -17 -14 -23 -25 -9 -18 -8 -19 18 -18 45 3 51 1
58 -21 6 -17 9 -19 16 -8 17 27 9 54 -18 67 -29 13 -31 13 -51 5z"/>
<path d="M2872 7148 c-17 -17 -15 -58 2 -58 32 0 46 13 46 41 0 31 -25 40 -48
17z"/>
<path d="M3001 7109 c-8 -26 -19 -41 -34 -44 -12 -3 -33 -22 -46 -40 -13 -19
-27 -35 -32 -35 -14 0 -10 -47 4 -53 8 -3 20 -1 28 4 8 5 19 9 24 9 6 -1 2 -5
-8 -11 -9 -6 -15 -14 -12 -20 7 -11 26 -12 24 -1 -1 4 0 10 1 15 1 4 3 10 4
15 4 19 32 72 38 72 4 0 20 13 36 28 46 45 49 88 5 96 -16 4 -23 -3 -32 -35z"/>
<path d="M2816 6994 c-4 -9 -4 -19 -1 -22 3 -3 5 0 5 6 0 6 7 9 15 6 8 -4 12
-11 9 -16 -4 -6 -1 -9 7 -6 8 3 15 13 16 24 2 10 0 14 -3 7 -3 -7 -12 -9 -20
-6 -7 3 -11 9 -8 14 3 5 1 9 -4 9 -6 0 -13 -7 -16 -16z"/>
<path d="M2842 6869 c2 -6 8 -10 13 -10 5 0 11 4 13 10 2 6 -4 11 -13 11 -9 0
-15 -5 -13 -11z"/>
<path d="M2876 6841 c-4 -7 -5 -15 -2 -18 9 -9 19 4 14 18 -4 11 -6 11 -12 0z"/>
<path d="M1192 6768 c5 -15 28 -23 28 -10 0 5 -7 13 -16 16 -10 4 -14 1 -12
-6z"/>
<path d="M1240 6654 c0 -12 -7 -15 -24 -12 -23 5 -24 3 -23 -56 0 -34 -2 -81
-6 -106 -4 -31 -4 -37 2 -20 8 22 9 20 10 -17 1 -32 5 -43 17 -43 13 0 15 8 9
50 -7 49 1 83 14 62 3 -6 6 27 6 74 0 46 -1 84 -2 84 -2 0 -3 -7 -3 -16z"/>
<path d="M2526 6181 c-4 -7 -5 -15 -2 -18 9 -9 19 4 14 18 -4 11 -6 11 -12 0z"/>
<path d="M2417 6098 c-3 -9 -15 -18 -27 -20 -26 -4 -80 -95 -63 -106 6 -4 15
-21 19 -37 4 -17 14 -35 22 -41 9 -7 13 -20 10 -32 -4 -12 0 -26 8 -33 11 -9
14 -9 14 0 0 7 4 10 8 7 4 -2 6 11 4 30 -3 21 -10 34 -18 34 -11 0 -14 12 -12
50 2 27 6 50 11 50 4 0 7 6 7 13 1 24 49 67 75 67 l25 0 -15 -37 c-9 -21 -19
-40 -23 -43 -19 -13 -51 -63 -46 -71 3 -5 0 -9 -6 -9 -6 0 -8 -4 -5 -10 10
-16 35 -12 42 8 4 9 22 32 41 49 31 29 34 37 29 70 -8 44 -42 76 -68 62 -12
-6 -19 -5 -21 3 -3 8 -7 6 -11 -4z"/>
<path d="M2263 5975 c0 -8 4 -15 9 -15 4 0 8 4 8 9 0 6 -4 12 -8 15 -5 3 -9
-1 -9 -9z"/>
<path d="M2108 5443 c7 -3 16 -2 19 1 4 3 -2 6 -13 5 -11 0 -14 -3 -6 -6z"/>
<path d="M2040 5370 c0 -11 5 -20 10 -20 6 0 10 9 10 20 0 11 -4 20 -10 20 -5
0 -10 -9 -10 -20z"/>
<path d="M1812 4964 c-7 -8 -17 -12 -22 -9 -5 3 -11 -4 -15 -15 -3 -11 -15
-25 -26 -30 -23 -13 -25 -38 -4 -46 9 -4 15 -19 15 -35 0 -16 4 -29 9 -29 5 0
17 -7 25 -16 21 -20 21 -4 2 59 -13 45 -13 46 15 78 16 18 29 36 29 40 0 15
-15 17 -28 3z"/>
<path d="M1698 4832 c-4 -13 -16 -26 -27 -29 -12 -3 -21 -9 -21 -14 0 -5 -7
-9 -15 -9 -8 0 -15 -4 -15 -10 0 -5 5 -10 10 -10 6 0 10 -15 11 -32 l1 -33 11
28 c6 15 17 27 25 27 9 0 12 6 8 16 -4 10 1 25 10 35 9 9 14 26 12 36 -3 15
-5 14 -10 -5z"/>
<path d="M1724 4775 c-9 -21 3 -45 21 -45 10 0 15 10 15 30 0 32 -26 43 -36
15z"/>
<path d="M1693 4732 c-8 -5 -9 -13 -3 -22 15 -23 12 -28 -14 -23 -14 3 -29 -2
-37 -12 -8 -9 -22 -24 -32 -34 -14 -14 -17 -27 -12 -53 6 -30 10 -35 35 -34
19 1 26 5 22 15 -4 10 -1 12 8 6 10 -6 12 -4 7 8 -3 9 -2 19 3 22 6 4 10 -5
10 -19 0 -46 24 -42 50 7 8 16 25 40 37 53 26 29 31 74 8 74 -8 0 -14 -3 -14
-7 4 -24 -2 -53 -10 -49 -9 6 -28 -12 -31 -29 -1 -9 -29 -9 -38 0 -2 2 7 21
20 44 23 40 18 69 -9 53z"/>
<path d="M1396 4683 c-3 -3 -6 -22 -6 -40 0 -29 5 -36 35 -49 44 -18 38 -19
74 17 35 35 38 44 15 53 -26 10 -32 7 -38 -19 -5 -18 -13 -25 -30 -25 -25 0
-39 20 -30 44 6 15 -9 30 -20 19z"/>
<path d="M1520 4364 c0 -8 5 -12 10 -9 6 4 8 11 5 16 -9 14 -15 11 -15 -7z"/>
<path d="M10501 8154 c0 -11 3 -14 6 -6 3 7 2 16 -1 19 -3 4 -6 -2 -5 -13z"/>
<path d="M10535 7690 c3 -5 8 -10 11 -10 2 0 4 5 4 10 0 6 -5 10 -11 10 -5 0
-7 -4 -4 -10z"/>
<path d="M10250 7650 c-13 -8 -13 -13 2 -37 23 -39 43 -36 43 7 0 37 -17 48
-45 30z"/>
<path d="M10647 7513 c-14 -14 -6 -42 14 -48 26 -9 52 15 43 38 -6 17 -44 23
-57 10z"/>
<path d="M10170 7439 c13 -23 33 -21 38 4 3 12 -4 17 -23 17 -23 0 -25 -2 -15
-21z"/>
<path d="M10640 7440 c0 -13 7 -20 20 -20 24 0 25 6 6 26 -20 19 -26 18 -26
-6z"/>
<path d="M10175 7330 c-4 -6 -3 -16 3 -22 6 -6 12 -6 17 2 4 6 3 16 -3 22 -6
6 -12 6 -17 -2z"/>
<path d="M10052 7310 c0 -14 2 -19 5 -12 2 6 2 18 0 25 -3 6 -5 1 -5 -13z"/>
<path d="M10020 7214 c0 -8 5 -12 10 -9 6 4 8 11 5 16 -9 14 -15 11 -15 -7z"/>
<path d="M9841 6854 c0 -11 3 -14 6 -6 3 7 2 16 -1 19 -3 4 -6 -2 -5 -13z"/>
<path d="M10873 6505 c0 -22 2 -30 4 -17 2 12 2 30 0 40 -3 9 -5 -1 -4 -23z"/>
<path d="M10845 5990 c3 -5 8 -10 11 -10 2 0 4 5 4 10 0 6 -5 10 -11 10 -5 0
-7 -4 -4 -10z"/>
<path d="M10912 5785 c0 -16 2 -22 5 -12 2 9 2 23 0 30 -3 6 -5 -1 -5 -18z"/>
<path d="M9278 5720 c5 -45 18 -53 28 -15 7 30 -1 55 -18 55 -10 0 -12 -12
-10 -40z"/>
<path d="M9140 5640 c0 -13 7 -20 20 -20 23 0 26 10 8 28 -18 18 -28 15 -28
-8z"/>
<path d="M9280 5581 c0 -10 -7 -21 -15 -25 -18 -6 -20 -27 -3 -23 21 4 38 25
38 46 0 12 -4 21 -10 21 -5 0 -10 -9 -10 -19z"/>
<path d="M9140 5515 c0 -18 5 -25 20 -25 15 0 20 7 20 25 0 18 -5 25 -20 25
-15 0 -20 -7 -20 -25z"/>
<path d="M9112 5449 c1 -33 3 -36 24 -30 28 7 29 9 21 41 -6 21 -9 22 -17 10
-9 -13 -11 -13 -20 0 -7 11 -9 6 -8 -21z"/>
<path d="M9055 5393 c5 -14 3 -15 -5 -7 -13 13 -53 6 -44 -7 3 -5 -2 -33 -12
-61 -16 -49 -16 -52 1 -64 21 -15 35 -10 35 13 0 14 29 56 66 95 22 23 11 48
-22 48 -21 0 -25 -4 -19 -17z"/>
<path d="M9080 5266 c0 -19 5 -38 10 -41 6 -3 10 2 10 12 0 11 5 24 11 30 13
13 4 33 -17 33 -9 0 -14 -11 -14 -34z"/>
<path d="M9873 5013 c9 -2 25 -2 35 0 9 3 1 5 -18 5 -19 0 -27 -2 -17 -5z"/>
<path d="M9920 4933 c0 -7 6 -13 13 -13 12 0 46 19 37 21 -33 6 -50 4 -50 -8z"/>
<path d="M10376 4902 c-14 -13 -4 -22 25 -22 16 0 28 4 25 9 -7 11 -43 21 -50
13z"/>
<path d="M10350 4890 c0 -5 -7 -10 -15 -10 -8 0 -15 -3 -15 -8 0 -4 -13 -13
-29 -20 -33 -15 -39 -52 -9 -52 9 0 22 -9 28 -20 9 -16 8 -20 -7 -22 -25 -2
-66 -6 -78 -7 -13 -1 -16 -51 -4 -51 5 0 12 7 15 15 4 8 13 15 21 15 8 0 29 6
46 14 53 23 134 46 164 46 21 0 29 5 30 19 2 26 -15 31 -70 20 -65 -12 -79 -5
-71 37 3 19 3 34 0 34 -3 0 -6 -4 -6 -10z"/>
<path d="M10480 4890 c0 -5 6 -10 13 -10 7 0 23 -7 35 -16 22 -15 22 -17 5
-29 -16 -12 -15 -13 12 -12 36 2 58 26 43 44 -6 7 -7 13 -2 14 5 0 0 4 -11 9
-28 12 -95 12 -95 0z"/>
<path d="M10647 4894 c-14 -15 -6 -20 34 -23 30 -1 40 2 37 11 -5 14 -59 23
-71 12z"/>
<path d="M8737 4784 c-8 -8 3 -34 14 -34 11 0 12 27 0 34 -4 3 -11 3 -14 0z"/>
<path d="M9945 4730 c-3 -5 1 -10 10 -10 9 0 13 5 10 10 -3 6 -8 10 -10 10 -2
0 -7 -4 -10 -10z"/>
<path d="M10130 4730 c0 -5 7 -7 15 -4 8 4 15 8 15 10 0 2 -7 4 -15 4 -8 0
-15 -4 -15 -10z"/>
<path d="M9950 4680 c0 -5 7 -7 15 -4 8 4 15 8 15 10 0 2 -7 4 -15 4 -8 0 -15
-4 -15 -10z"/>
<path d="M9848 4643 c6 -2 18 -2 25 0 6 3 1 5 -13 5 -14 0 -19 -2 -12 -5z"/>
<path d="M8593 4538 c1 -24 -2 -51 -7 -60 -6 -13 -2 -20 18 -29 14 -7 28 -10
30 -8 3 2 8 29 12 58 5 38 4 52 -4 47 -6 -3 -13 -2 -17 4 -3 5 0 10 7 11 7 0
4 4 -7 9 -31 14 -33 12 -32 -32z"/>
<path d="M9665 4570 c-3 -5 -1 -10 4 -10 6 0 11 5 11 10 0 6 -2 10 -4 10 -3 0
-8 -4 -11 -10z"/>
<path d="M8530 4540 c0 -5 5 -10 10 -10 6 0 10 5 10 10 0 6 -4 10 -10 10 -5 0
-10 -4 -10 -10z"/>
<path d="M8495 4498 c-2 -7 -6 -30 -10 -50 -6 -37 -5 -38 23 -38 15 0 33 -5
40 -12 8 -8 14 -5 22 16 15 39 13 43 -20 58 -16 7 -30 19 -30 25 0 17 -19 17
-25 1z"/>
<path d="M8485 4389 c-11 -5 -28 -22 -38 -37 -9 -15 -29 -44 -44 -65 -28 -36
-36 -88 -19 -116 10 -15 36 4 36 25 0 8 5 14 10 14 6 0 10 6 10 13 0 7 9 20
20 30 11 9 20 27 20 40 0 13 9 32 20 42 11 10 20 29 20 42 0 25 -5 27 -35 12z"/>
<path d="M8774 4369 c-10 -17 12 -32 35 -24 29 9 27 35 -3 35 -14 0 -28 -5
-32 -11z"/>
<path d="M8586 4355 c-3 -8 -16 -15 -29 -15 -28 0 -37 -7 -31 -25 6 -15 53 -6
76 15 7 6 22 17 33 25 19 14 19 14 -11 15 -19 0 -34 -6 -38 -15z"/>
<path d="M8901 4331 c-10 -6 -10 -10 -1 -16 16 -10 82 4 75 16 -8 11 -55 12
-74 0z"/>
<path d="M8834 4299 c-3 -6 -15 -8 -26 -6 -11 3 -18 1 -16 -5 9 -26 78 -14 78
13 0 13 -28 11 -36 -2z"/>
<path d="M8360 4290 c0 -6 7 -10 15 -10 8 0 15 2 15 4 0 2 -7 6 -15 10 -8 3
-15 1 -15 -4z"/>
<path d="M8312 4221 c-5 -15 -17 -35 -27 -44 -15 -16 -15 -17 4 -17 12 0 21 6
21 14 0 8 6 16 14 19 19 7 27 45 11 51 -8 3 -17 -6 -23 -23z"/>
<path d="M3047 5780 c3 -11 9 -20 14 -20 11 0 11 3 3 24 -9 23 -23 20 -17 -4z"/>
<path d="M2666 5532 c-3 -5 -1 -22 4 -38 8 -29 8 -29 9 9 1 36 -3 45 -13 29z"/>
<path d="M2834 5466 c-8 -22 -1 -28 26 -24 l22 3 -21 19 c-19 17 -21 17 -27 2z"/>
<path d="M2670 5430 c0 -5 -10 -10 -23 -10 -13 0 -34 -10 -46 -21 -21 -20 -22
-27 -16 -88 8 -73 9 -76 24 -66 6 3 11 30 11 58 0 46 4 56 30 79 26 22 41 58
25 58 -3 0 -5 -4 -5 -10z"/>
<path d="M2693 5426 c4 -10 7 -22 7 -27 0 -5 5 -9 11 -9 15 0 7 43 -10 48 -10
3 -12 0 -8 -12z"/>
<path d="M2840 5415 c0 -8 5 -15 10 -15 6 0 10 7 10 15 0 8 -4 15 -10 15 -5 0
-10 -7 -10 -15z"/>
<path d="M2764 5329 c3 -17 6 -35 6 -40 0 -5 9 -9 20 -9 25 0 26 27 1 58 -26
30 -35 28 -27 -9z"/>
<path d="M2664 5316 c-11 -28 1 -51 26 -54 20 -3 23 -1 13 9 -7 7 -13 23 -13
36 0 25 -17 31 -26 9z"/>
<path d="M3138 5238 c-3 -88 0 -118 12 -118 16 0 30 89 21 130 -5 22 -9 43
-10 45 -1 3 -1 10 -1 15 0 6 -4 10 -9 10 -5 0 -11 -37 -13 -82z"/>
<path d="M2985 5300 c-8 -13 15 -13 35 0 12 8 11 10 -7 10 -12 0 -25 -4 -28
-10z"/>
<path d="M2212 4669 c2 -6 8 -10 13 -10 5 0 11 4 13 10 2 6 -4 11 -13 11 -9 0
-15 -5 -13 -11z"/>
<path d="M2120 4529 c0 -5 5 -7 10 -4 6 3 10 8 10 11 0 2 -4 4 -10 4 -5 0 -10
-5 -10 -11z"/>
<path d="M2110 4430 c0 -5 7 -10 15 -10 8 0 15 5 15 10 0 6 -7 10 -15 10 -8 0
-15 -4 -15 -10z"/>
<path d="M3398 4295 c4 -36 14 -47 45 -52 23 -4 22 22 -3 47 -11 11 -20 25
-20 30 0 6 -6 10 -13 10 -9 0 -12 -11 -9 -35z"/>
<path d="M3380 4154 c0 -8 7 -22 15 -30 13 -14 15 -12 15 15 0 21 -5 31 -15
31 -8 0 -15 -7 -15 -16z"/>
<path d="M3450 4136 c0 -19 5 -38 10 -41 6 -4 10 8 10 29 0 19 -4 38 -10 41
-6 4 -10 -8 -10 -29z"/>
<path d="M3429 4028 c-6 -12 -4 -48 2 -48 5 0 9 11 9 25 0 21 -6 33 -11 23z"/>
<path d="M3460 3916 c0 -24 16 -43 27 -32 8 8 -6 56 -17 56 -6 0 -10 -11 -10
-24z"/>
<path d="M3380 3845 c0 -34 12 -46 25 -24 9 14 -3 59 -15 59 -6 0 -10 -16 -10
-35z"/>
<path d="M3491 3838 c1 -13 5 -36 9 -53 6 -25 8 -26 9 -7 1 21 2 22 17 8 8 -9
16 -16 17 -16 1 0 2 16 2 35 0 24 -4 34 -12 30 -7 -2 -13 2 -13 10 0 8 -7 15
-15 15 -9 0 -15 -9 -14 -22z"/>
<path d="M1865 3770 c-7 -12 2 -30 16 -30 5 0 9 9 9 20 0 21 -15 27 -25 10z"/>
<path d="M1893 3664 c-39 -61 -23 -89 21 -37 14 16 21 35 18 50 -6 31 -13 29
-39 -13z"/>
<path d="M2000 3470 c0 -15 5 -20 18 -18 9 2 17 10 17 18 0 8 -8 16 -17 18
-13 2 -18 -3 -18 -18z"/>
<path d="M2240 3235 c0 -8 7 -15 15 -15 8 0 15 7 15 15 0 8 -7 15 -15 15 -8 0
-15 -7 -15 -15z"/>
<path d="M2180 3224 c0 -8 5 -12 10 -9 6 3 10 10 10 16 0 5 -4 9 -10 9 -5 0
-10 -7 -10 -16z"/>
<path d="M2288 3193 c7 -3 16 -2 19 1 4 3 -2 6 -13 5 -11 0 -14 -3 -6 -6z"/>
<path d="M2210 3080 c0 -5 5 -10 10 -10 6 0 10 5 10 10 0 6 -4 10 -10 10 -5 0
-10 -4 -10 -10z"/>
<path d="M2275 3020 c-3 -5 3 -10 14 -10 12 0 21 5 21 10 0 6 -6 10 -14 10 -8
0 -18 -4 -21 -10z"/>
<path d="M2350 2945 c0 -9 5 -15 11 -13 6 2 11 8 11 13 0 5 -5 11 -11 13 -6 2
-11 -4 -11 -13z"/>
<path d="M2481 2861 c-8 -10 -12 -21 -10 -23 2 -3 -2 -12 -10 -21 -7 -10 -9
-17 -3 -17 5 0 12 7 16 15 3 8 12 15 20 15 19 0 28 14 20 34 -8 21 -17 20 -33
-3z"/>
<path d="M2588 2793 c7 -3 16 -2 19 1 4 3 -2 6 -13 5 -11 0 -14 -3 -6 -6z"/>
<path d="M3077 2393 c-12 -11 -8 -23 8 -23 8 0 15 7 15 15 0 16 -12 20 -23 8z"/>
<path d="M3876 2393 c-11 -11 -6 -23 9 -23 8 0 15 4 15 9 0 13 -16 22 -24 14z"/>
<path d="M3075 2310 c4 -6 11 -8 16 -5 14 9 11 15 -7 15 -8 0 -12 -5 -9 -10z"/>
<path d="M3977 2143 c-11 -10 -8 -43 3 -43 6 0 10 11 10 25 0 26 -2 29 -13 18z"/>
<path d="M3362 2084 c-18 -22 -35 -33 -42 -29 -8 5 -11 1 -8 -11 4 -24 38 -32
38 -9 0 8 7 18 15 21 8 4 13 10 10 15 -3 4 4 13 15 19 11 6 20 15 20 20 0 20
-19 9 -48 -26z"/>
<path d="M3455 2070 c-3 -5 -1 -10 4 -10 6 0 11 5 11 10 0 6 -2 10 -4 10 -3 0
-8 -4 -11 -10z"/>
<path d="M3385 2030 c3 -5 13 -10 21 -10 8 0 14 5 14 10 0 6 -9 10 -21 10 -11
0 -17 -4 -14 -10z"/>
<path d="M3430 2001 c0 -13 37 -24 50 -16 6 4 8 11 5 16 -8 12 -55 12 -55 0z"/>
<path d="M3512 1975 c-10 -21 -9 -26 7 -35 24 -12 36 12 21 41 -13 24 -15 24
-28 -6z"/>
<path d="M3598 1940 c-4 -26 -1 -30 19 -30 19 0 23 5 23 30 0 23 -5 30 -19 30
-13 0 -20 -9 -23 -30z"/>
<path d="M3915 1820 c-4 -6 5 -10 20 -10 15 0 24 4 20 10 -3 6 -12 10 -20 10
-8 0 -17 -4 -20 -10z"/>
<path d="M3840 1780 c0 -5 4 -10 9 -10 6 0 13 5 16 10 3 6 -1 10 -9 10 -9 0
-16 -4 -16 -10z"/>
<path d="M10540 4385 c-7 -9 -27 -14 -51 -13 -44 1 -54 -4 -46 -26 5 -12 13
-13 38 -6 38 11 79 3 79 -15 0 -7 -18 -15 -40 -19 -27 -4 -40 -11 -40 -22 0
-8 -7 -22 -15 -30 -8 -9 -15 -21 -15 -27 0 -8 3 -9 8 -1 4 6 15 13 25 17 10 4
16 11 13 16 -3 5 2 7 13 4 32 -8 66 35 69 90 4 50 -12 63 -38 32z"/>
<path d="M10490 4115 c0 -8 5 -15 10 -15 6 0 10 7 10 15 0 8 -4 15 -10 15 -5
0 -10 -7 -10 -15z"/>
<path d="M9347 4013 c-14 -4 -16 -8 -6 -19 9 -11 15 -12 25 -3 15 12 19 30 7
28 -5 -1 -16 -3 -26 -6z"/>
<path d="M9190 3963 c-8 -3 -23 -12 -33 -21 -13 -12 -22 -13 -40 -5 -30 14
-77 5 -77 -14 0 -8 5 -11 11 -8 5 4 18 0 27 -8 27 -25 71 -32 78 -13 3 9 12
16 20 16 8 0 22 9 31 20 10 11 23 20 30 20 6 0 15 5 18 10 7 11 -39 13 -65 3z
m-3 -39 c-3 -3 -12 -4 -19 -1 -8 3 -5 6 6 6 11 1 17 -2 13 -5z"/>
<path d="M9012 3913 c-7 -10 -10 -12 -7 -5 4 7 -1 12 -14 12 -26 0 -51 -10
-51 -21 0 -19 72 -44 118 -40 22 2 13 19 -14 25 -19 5 -24 11 -19 26 8 25 4
25 -13 3z"/>
<path d="M9265 3870 c-18 -8 -17 -9 8 -9 16 -1 26 3 22 9 -3 6 -7 10 -8 9 -1
0 -11 -4 -22 -9z"/>
<path d="M8840 3860 c0 -6 7 -10 15 -10 8 0 15 2 15 4 0 2 -7 6 -15 10 -8 3
-15 1 -15 -4z"/>
<path d="M10073 3570 c-2 -31 11 -48 22 -30 8 13 -2 60 -13 60 -4 0 -8 -13 -9
-30z"/>
<path d="M7550 3460 c-8 -5 -32 -7 -53 -5 -45 6 -58 0 -51 -20 5 -11 21 -13
71 -10 73 5 84 10 76 30 -6 17 -21 19 -43 5z"/>
<path d="M10000 3421 c0 -17 5 -31 10 -31 6 0 15 -11 20 -25 9 -23 12 -24 31
-14 l22 11 -26 22 c-14 11 -27 30 -29 40 -5 33 -28 31 -28 -3z"/>
<path d="M7420 3395 c0 -16 54 -48 64 -38 12 12 6 23 -14 23 -11 0 -23 7 -26
15 -8 19 -24 19 -24 0z"/>
<path d="M7580 3381 c-22 -6 -23 -8 -7 -14 26 -10 67 -9 67 2 0 7 -27 24 -33
20 -1 -1 -13 -4 -27 -8z"/>
<path d="M7263 3365 c0 -7 10 -10 24 -7 13 2 23 8 23 12 0 4 -10 8 -23 8 -13
0 -24 -6 -24 -13z"/>
<path d="M7360 3310 c0 -6 7 -10 15 -10 8 0 15 2 15 4 0 2 -7 6 -15 10 -8 3
-15 1 -15 -4z"/>
<path d="M9925 3270 c-7 -12 12 -40 26 -40 5 0 9 11 9 25 0 25 -23 35 -35 15z"/>
<path d="M9832 3234 c1 -9 13 -21 26 -25 20 -8 23 -6 20 14 -2 14 -11 23 -26
25 -18 3 -23 -1 -20 -14z"/>
<path d="M9773 3173 c-15 -5 -18 -63 -3 -63 5 0 16 13 24 29 16 30 7 44 -21
34z"/>
<path d="M9870 3160 c0 -13 5 -18 15 -14 8 4 15 12 15 20 0 8 -7 14 -15 14 -8
0 -15 -9 -15 -20z"/>
<path d="M6145 3150 c-3 -5 1 -10 9 -10 9 0 16 5 16 10 0 6 -4 10 -9 10 -6 0
-13 -4 -16 -10z"/>
<path d="M6105 3120 c3 -5 12 -10 20 -10 8 0 17 5 20 10 4 6 -5 10 -20 10 -15
0 -24 -4 -20 -10z"/>
<path d="M9853 3103 c-7 -3 -13 -12 -13 -21 0 -15 2 -15 17 1 18 18 16 27 -4
20z"/>
<path d="M9771 3006 c-16 -19 -11 -29 8 -17 7 5 12 14 9 21 -3 9 -8 7 -17 -4z"/>
<path d="M6555 2950 c-3 -5 -1 -10 4 -10 6 0 11 5 11 10 0 6 -2 10 -4 10 -3 0
-8 -4 -11 -10z"/>
<path d="M7243 2603 c-22 -8 -14 -23 12 -23 14 0 25 4 25 9 0 11 -21 19 -37
14z"/>
<path d="M9345 2580 c19 -21 30 -27 20 -10 -3 6 -1 10 4 10 6 0 11 5 11 10 0
6 -12 10 -27 10 -25 0 -26 0 -8 -20z"/>
<path d="M9233 2572 c-27 -4 -31 -32 -5 -32 11 0 27 -9 37 -20 19 -21 35 -18
35 6 0 8 -7 14 -15 14 -8 0 -15 6 -15 14 0 19 -9 23 -37 18z"/>
<path d="M9144 2515 c-9 -23 14 -45 26 -25 5 8 8 19 7 24 -6 17 -27 18 -33 1z"/>
<path d="M9200 2450 c0 -5 5 -10 11 -10 5 0 7 -5 3 -11 -4 -8 0 -8 15 0 28 16
27 31 -4 31 -14 0 -25 -4 -25 -10z"/>
<path d="M9040 2430 c0 -5 5 -10 10 -10 6 0 10 5 10 10 0 6 -4 10 -10 10 -5 0
-10 -4 -10 -10z"/>
<path d="M8974 2409 c-22 -8 -74 -64 -74 -80 0 -38 129 34 130 72 0 11 -35 16
-56 8z"/>
<path d="M9135 2368 c10 -34 23 -44 31 -25 3 9 -1 23 -9 32 -22 21 -29 19 -22
-7z"/>
<path d="M9023 2323 c-13 -8 -23 -21 -23 -29 0 -7 -9 -19 -21 -28 -15 -10 -19
-20 -14 -35 6 -21 25 -29 25 -11 0 6 9 10 21 10 11 0 18 4 15 9 -3 4 6 19 19
31 26 24 34 70 13 69 -7 0 -23 -7 -35 -16z"/>
<path d="M7770 2255 c0 -8 5 -15 10 -15 6 0 10 7 10 15 0 8 -4 15 -10 15 -5 0
-10 -7 -10 -15z"/>
<path d="M8088 2103 c7 -3 16 -2 19 1 4 3 -2 6 -13 5 -11 0 -14 -3 -6 -6z"/>
<path d="M8280 2095 c0 -17 2 -18 24 -9 23 9 20 24 -4 24 -11 0 -20 -7 -20
-15z"/>
<path d="M8005 2069 c-4 -6 -4 -13 -1 -16 8 -8 36 5 36 17 0 13 -27 13 -35 -1z"/>
<path d="M8125 2060 c-10 -11 -24 -20 -32 -20 -7 0 -13 -4 -13 -10 0 -5 9 -10
19 -10 22 0 74 43 64 53 -10 11 -19 8 -38 -13z"/>
<path d="M8205 2070 c-8 -12 17 -23 41 -18 10 1 19 9 22 16 5 15 -54 17 -63 2z"/>
<path d="M8574 2046 c-35 -13 -44 -29 -17 -34 10 -2 30 -17 45 -33 27 -29 48
-37 48 -19 0 6 -6 10 -14 10 -16 0 -27 33 -16 50 9 14 2 41 -9 39 -3 -1 -20
-6 -37 -13z"/>
<path d="M8178 1993 c7 -3 16 -2 19 1 4 3 -2 6 -13 5 -11 0 -14 -3 -6 -6z"/>
<path d="M8220 1960 c0 -5 5 -10 10 -10 6 0 10 5 10 10 0 6 -4 10 -10 10 -5 0
-10 -4 -10 -10z"/>
<path d="M4130 3751 c-16 -32 -12 -43 13 -35 28 8 27 6 20 32 -7 27 -19 28
-33 3z"/>
<path d="M4263 3613 c9 -2 23 -2 30 0 6 3 -1 5 -18 5 -16 0 -22 -2 -12 -5z"/>
<path d="M4070 3550 c0 -5 5 -10 10 -10 6 0 10 5 10 10 0 6 -4 10 -10 10 -5 0
-10 -4 -10 -10z"/>
<path d="M4052 3530 c0 -14 2 -19 5 -12 2 6 2 18 0 25 -3 6 -5 1 -5 -13z"/>
<path d="M4662 3439 c2 -6 8 -10 13 -10 5 0 11 4 13 10 2 6 -4 11 -13 11 -9 0
-15 -5 -13 -11z"/>
<path d="M5023 3243 c-20 -7 -15 -23 6 -23 11 0 22 -4 25 -9 8 -13 46 -1 46
14 0 19 -48 30 -77 18z"/>
<path d="M4971 3194 c6 -7 16 -11 21 -8 11 7 3 17 -18 20 -12 2 -13 -1 -3 -12z"/>
<path d="M5065 3160 c-27 -18 -28 -20 -8 -20 12 0 25 -4 28 -10 13 -20 31 -9
33 20 3 36 -11 38 -53 10z"/>
<path d="M5272 3109 c-7 -12 -11 -23 -8 -26 7 -7 36 23 36 36 0 18 -14 13 -28
-10z"/>
<path d="M5143 3088 c2 -7 10 -13 17 -13 7 0 15 6 18 13 2 7 -5 12 -18 12 -13
0 -20 -5 -17 -12z"/>
<path d="M5080 3049 c0 -5 5 -7 10 -4 6 3 10 8 10 11 0 2 -4 4 -10 4 -5 0 -10
-5 -10 -11z"/>
<path d="M5280 2985 c0 -8 7 -15 15 -15 8 0 15 4 15 9 0 5 -7 11 -15 15 -9 3
-15 0 -15 -9z"/>
<path d="M5520 2916 c0 -9 5 -16 10 -16 6 0 10 4 10 9 0 6 -4 13 -10 16 -5 3
-10 -1 -10 -9z"/>
<path d="M4282 2906 c1 -10 8 -17 13 -17 15 1 12 24 -3 29 -9 3 -13 -2 -10
-12z"/>
<path d="M5658 2803 c7 -3 16 -2 19 1 4 3 -2 6 -13 5 -11 0 -14 -3 -6 -6z"/>
<path d="M4281 2764 c0 -11 3 -14 6 -6 3 7 2 16 -1 19 -3 4 -6 -2 -5 -13z"/>
<path d="M4467 2674 c-4 -4 -7 -14 -7 -23 0 -11 3 -12 11 -4 6 6 10 16 7 23
-2 6 -7 8 -11 4z"/>
<path d="M4306 2635 c4 -8 8 -15 10 -15 2 0 4 7 4 15 0 8 -4 15 -10 15 -5 0
-7 -7 -4 -15z"/>
<path d="M4420 2547 c0 -27 -5 -37 -20 -42 -21 -7 -27 -45 -14 -80 10 -24 24
1 24 43 0 26 5 35 21 39 16 4 19 12 17 36 -4 44 -28 47 -28 4z"/>
<path d="M6201 2561 c-8 -5 -9 -11 -3 -15 14 -8 43 4 36 15 -7 11 -15 11 -33
0z"/>
<path d="M6138 2523 c7 -3 16 -2 19 1 4 3 -2 6 -13 5 -11 0 -14 -3 -6 -6z"/>
<path d="M6206 2460 c-13 -4 -16 -9 -8 -14 7 -4 19 -3 28 2 21 12 5 22 -20 12z"/>
<path d="M6332 2453 c12 -15 44 -17 52 -4 3 5 -10 11 -29 13 -27 3 -32 1 -23
-9z"/>
<path d="M4473 2452 c-18 -11 -21 -67 -3 -68 22 -1 40 16 40 36 0 22 -22 41
-37 32z"/>
<path d="M4422 2328 c4 -66 24 -75 33 -14 8 49 2 66 -21 66 -12 0 -15 -11 -12
-52z"/>
<path d="M6588 2289 c-10 -5 -18 -17 -18 -25 0 -20 27 -29 45 -14 9 7 26 9 45
5 23 -5 30 -3 30 9 0 9 -4 17 -10 17 -5 1 -14 2 -19 3 -5 0 -13 4 -17 9 -10
10 -36 8 -56 -4z"/>
<path d="M6789 2254 c-16 -20 1 -33 37 -26 27 5 30 12 12 30 -16 16 -33 15
-49 -4z"/>
<path d="M6720 2205 c0 -17 2 -18 24 -9 23 9 20 24 -4 24 -11 0 -20 -7 -20
-15z"/>
<path d="M6872 2208 c3 -7 13 -15 22 -16 12 -3 17 1 14 10 -3 7 -13 15 -22 16
-12 3 -17 -1 -14 -10z"/>
<path d="M6800 2170 c0 -5 5 -10 11 -10 5 0 7 5 4 10 -3 6 -8 10 -11 10 -2 0
-4 -4 -4 -10z"/>
<path d="M7220 1922 c0 -10 50 -35 57 -28 2 2 -5 7 -18 11 -17 6 -19 9 -8 16
10 6 8 9 -8 9 -13 0 -23 -4 -23 -8z"/>
<path d="M7650 1752 c0 -5 7 -13 16 -16 25 -9 64 -7 64 4 0 6 -8 10 -17 10
-10 0 -28 3 -40 6 -13 4 -23 2 -23 -4z"/>
<path d="M7800 1713 c0 -15 23 -33 41 -33 29 0 16 35 -14 38 -15 2 -27 -1 -27
-5z"/>
<path d="M7723 1638 c2 -7 10 -13 17 -13 7 0 15 6 18 13 2 7 -5 12 -18 12 -13
0 -20 -5 -17 -12z"/>
<path d="M7897 1613 c-11 -10 -8 -20 8 -27 10 -4 15 1 15 14 0 20 -11 26 -23
13z"/>
<path d="M4749 1601 c11 -7 9 -10 -9 -16 -18 -6 -20 -9 -9 -16 27 -17 47 -10
45 16 -1 18 -7 25 -21 25 -15 0 -17 -2 -6 -9z"/>
<path d="M4802 1468 c5 -15 28 -23 28 -10 0 5 -7 13 -16 16 -10 4 -14 1 -12
-6z"/>
<path d="M4755 1400 c-6 -10 -5 -11 32 -15 14 -1 20 2 16 11 -6 16 -39 19 -48
4z"/>
<path d="M4798 1343 c6 -2 18 -2 25 0 6 3 1 5 -13 5 -14 0 -19 -2 -12 -5z"/>
<path d="M6795 1323 c-11 -3 -24 -9 -30 -15 -6 -6 -4 -7 6 -3 10 4 39 10 65
15 41 6 43 8 14 8 -19 0 -44 -2 -55 -5z"/>
<path d="M6976 1314 c-10 -7 -23 -11 -29 -7 -6 4 -7 1 -2 -7 6 -10 4 -12 -9
-7 -11 5 -16 3 -14 -5 2 -6 14 -15 27 -19 14 -6 20 -5 16 1 -3 6 -1 10 4 10 6
0 11 -5 11 -11 0 -5 4 -8 10 -4 5 3 6 13 3 22 -4 11 -3 14 5 9 13 -8 16 3 4
21 -5 8 -12 8 -26 -3z"/>
<path d="M6538 1293 c7 -3 16 -2 19 1 4 3 -2 6 -13 5 -11 0 -14 -3 -6 -6z"/>
<path d="M6780 1289 c0 -6 17 -9 45 -7 63 6 68 18 7 18 -30 0 -52 -4 -52 -11z"/>
<path d="M6702 1272 c-42 -7 -18 -27 29 -23 24 1 45 4 47 6 7 6 -55 21 -76 17z"/>
</g>
</svg>
